<svg width="36" height="36" viewBox="0 0 36 36" fill="none" xmlns="http://www.w3.org/2000/svg">
<path d="M24.75 12.945C24.135 12.945 23.625 12.435 23.625 11.82V9.75C23.625 8.175 22.95 6.645 21.78 5.58C20.595 4.5 19.065 4.005 17.445 4.155C14.745 4.41 12.375 7.17 12.375 10.05V11.505C12.375 12.12 11.865 12.63 11.25 12.63C10.635 12.63 10.125 12.12 10.125 11.505V10.035C10.125 6 13.38 2.28 17.235 1.905C19.485 1.695 21.645 2.4 23.295 3.915C24.93 5.4 25.875 7.53 25.875 9.75V11.82C25.875 12.435 25.365 12.945 24.75 12.945Z" fill="#3D4341"/>
<path d="M22.5 34.125H13.5C6.56997 34.125 5.27997 30.9 4.94997 27.765L3.82497 18.78C3.65997 17.16 3.59997 14.835 5.17497 13.095C6.52497 11.595 8.75997 10.875 12 10.875H24C27.255 10.875 29.49 11.61 30.825 13.095C32.385 14.835 32.34 17.16 32.175 18.75L31.05 27.765C30.72 30.9 29.43 34.125 22.5 34.125ZM12 13.125C9.46497 13.125 7.72497 13.62 6.83997 14.61C6.10497 15.42 5.86497 16.665 6.05997 18.525L7.18497 27.51C7.43997 29.91 8.09997 31.89 13.5 31.89H22.5C27.9 31.89 28.56 29.925 28.815 27.54L29.94 18.525C30.135 16.695 29.895 15.45 29.16 14.625C28.275 13.62 26.535 13.125 24 13.125H12Z" fill="#3D4341"/>
<path d="M23.13 19.725C22.29 19.725 21.615 19.05 21.615 18.225C21.615 17.4 22.29 16.725 23.115 16.725C23.94 16.725 24.615 17.4 24.615 18.225C24.615 19.05 23.955 19.725 23.13 19.725Z" fill="#3D4341"/>
<path d="M12.63 19.725C11.79 19.725 11.115 19.05 11.115 18.225C11.115 17.4 11.79 16.725 12.615 16.725C13.44 16.725 14.115 17.4 14.115 18.225C14.115 19.05 13.455 19.725 12.63 19.725Z" fill="#3D4341"/>
</svg>
