<svg width="36" height="36" viewBox="0 0 36 36" fill="none" xmlns="http://www.w3.org/2000/svg">
    <path d="M18 19.125C13.245 19.125 9.375 15.255 9.375 10.5C9.375 5.745 13.245 1.875 18 1.875C22.755 1.875 26.625 5.745 26.625 10.5C26.625 15.255 22.755 19.125 18 19.125ZM18 4.125C14.49 4.125 11.625 6.99 11.625 10.5C11.625 14.01 14.49 16.875 18 16.875C21.51 16.875 24.375 14.01 24.375 10.5C24.375 6.99 21.51 4.125 18 4.125Z" fill="#3D4341"/>
    <path d="M30.8852 34.125C30.2702 34.125 29.7602 33.615 29.7602 33C29.7602 27.825 24.4802 23.625 18.0002 23.625C11.5202 23.625 6.24023 27.825 6.24023 33C6.24023 33.615 5.73023 34.125 5.11523 34.125C4.50023 34.125 3.99023 33.615 3.99023 33C3.99023 26.595 10.2752 21.375 18.0002 21.375C25.7252 21.375 32.0102 26.595 32.0102 33C32.0102 33.615 31.5002 34.125 30.8852 34.125Z" fill="#3D4341"/>
</svg>
