<svg width="307" height="469" viewBox="0 0 307 469" fill="none" xmlns="http://www.w3.org/2000/svg">
<path d="M232.176 310.459C232.176 310.459 204.053 316.24 193.228 314.807C182.402 313.374 169.407 308.076 164.9 297.541C160.391 287.004 164.835 284.078 170.127 278.136C175.418 272.193 191.021 274.842 202.229 278.618C213.435 282.393 235.29 298.9 237.673 303.773C240.055 308.647 235.525 313.695 219.357 327.056C203.188 340.421 200.228 341.878 174.265 338.015C148.304 334.152 152.9 335.511 157.991 327.084C163.079 318.656 166.773 315.151 181.841 311.175C196.909 307.199 213.628 310.143 226.585 310.183C239.541 310.227 245.314 314.185 260.575 314.167C275.834 314.151 266.855 310.968 261.311 305.067C255.768 299.168 259.216 300.557 253.712 299.91C248.211 299.265 237.522 305.069 239.125 313.787C240.727 322.506 250.01 323.103 261.282 322.127C272.553 321.151 282.335 334.276 296.863 336.306C311.393 338.338 351.422 355.172 370.485 363.312C370.485 363.312 370.221 371.157 363.239 364.924C356.26 358.691 343.369 335.685 327.968 317.308C312.563 298.933 279.77 252.594 265.772 227.818C251.777 203.044 220.424 155.562 212.567 145.618C204.707 135.671 205.66 133.158 200.825 135.216C195.989 137.275 214.738 143.902 221.025 151.858M221.025 151.858C227.311 159.813 229.369 188.44 222.12 197.105C214.869 205.774 200.638 212.025 187.748 208.112C174.856 204.201 176.075 199.712 176.679 191.599C177.283 183.485 193.903 155.078 192.232 145.529C190.562 135.981 189.798 131.3 188.974 142.524C188.152 153.749 190.895 158.337 180.781 170.44C170.666 182.544 162.552 191.012 152.449 198.407C142.343 205.804 125.737 198.914 118.553 192.422C111.366 185.93 106.042 179.564 108.222 176.373C110.4 173.184 110.334 172.356 123.229 164.515C136.126 156.672 133.844 154.073 146.817 153.807C159.792 153.541 167.71 147.578 176.313 141.369C184.917 135.157 183.327 136.119 183.327 136.119C183.327 136.119 183.362 130.217 167.372 137.859C151.382 145.5 142.608 155.958 124.184 149.368C105.762 142.778 100.428 137.886 99.4425 128.092C98.4574 118.295 98.1483 109.729 98.1483 109.729C98.1483 109.729 120.671 105.148 135.61 105.095C150.547 105.04 151.795 112.57 162.309 118.068C172.82 123.567 175.905 125.24 179.686 125.192C183.466 125.142 179.279 132.855 172.366 127.451C165.453 122.046 160.098 114.528 149.925 100.537C139.752 86.5478 136.176 70.8697 143.778 63.3925C151.38 55.9166 156.44 64.5505 169.152 69.4846C181.864 74.42 184.774 69.1836 190.951 83.689C197.123 98.1953 205.006 116.346 198.873 112.674C192.74 109.001 194.138 97.0533 185.293 84.3379C176.451 71.6227 168.677 70.7421 167.004 55.6145C165.331 40.488 176.549 24.5759 176.549 24.5759C176.549 24.5759 188.548 34.1863 198.051 39.8932C207.555 45.6014 214.725 50.2146 215.427 65.2285C216.128 80.2411 205.511 116.241 203.86 109.321C202.21 102.4 208.595 94.1241 205.893 76.5793C203.192 59.0358 210.832 45.6569 216.587 39.9325C222.346 34.2083 235.511 35.2585 235.511 35.2585C235.511 35.2585 236.789 38.362 241.375 53.8324C245.96 69.2989 251.022 83.5107 246.541 92.337C242.061 101.165 229.357 112.965 220.324 118.634C211.293 124.302 207.8 124.713 203.602 128.323C199.405 131.933 188.096 133.233 186.351 129.91C184.608 126.588 186.662 120.268 194.477 119.378C202.292 118.49 202.409 117.518 205.817 119.231C209.226 120.942 200.26 127.438 194.824 127.622C189.389 127.806 188.825 123.827 196.975 123.28C205.124 122.732 222.963 122.717 232.5 116.944C242.037 111.171 246.158 108.208 256.592 108.774C267.026 109.342 279.754 125.82 279.754 125.82C279.754 125.82 272.401 141.279 261.076 153.107C248.361 166.383 221.025 151.858 221.025 151.858Z" stroke="#576E61" stroke-width="1.33333" stroke-miterlimit="10" stroke-linecap="round" stroke-linejoin="round"/>
<path d="M235.56 301.061C235.56 301.061 232.685 301.548 221.788 293.707C210.894 285.868 205.294 277.664 195.683 265.872C186.071 254.081 190.154 245.864 193.139 239.978C196.126 234.094 196.789 225.641 205.082 229.072C213.375 232.506 226.486 255.044 236.496 266.226C246.506 277.408 243.606 286.748 244.172 303.04C244.172 303.04 241.426 284.36 239.451 277.402C237.477 270.443 221.33 244.432 214.833 235.466C208.336 226.501 205.715 219.468 210.027 214.886C214.338 210.305 223.028 207.55 228.971 212.841C234.913 218.13 246.31 244.079 250.829 258.718C255.348 273.359 249.983 300.259 249.983 300.259" stroke="#576E61" stroke-width="1.33333" stroke-miterlimit="10" stroke-linecap="round" stroke-linejoin="round"/>
<path d="M207.291 230.348C199.843 220.583 188.969 215.372 179.372 213.262C169.774 211.153 171.365 210.19 163.494 219.932C155.627 229.676 149.755 236.37 155.907 242.67C162.059 248.97 167.651 253.071 176.536 259.854C185.421 266.638 193.38 265.93 193.38 265.93C193.38 265.93 189.312 260.04 181.018 256.607C172.725 253.173 153.901 247.193 144.933 248.111C135.966 249.029 132.923 258.187 132.923 258.187C132.923 258.187 125.72 265.055 127.369 271.974C129.019 278.895 130.115 282.142 140.82 286.022C151.52 289.902 163.13 288.659 163.13 288.659C163.13 288.659 149.818 284.07 143.169 284.165C136.522 284.258 123.902 291.751 124.687 299.061C125.471 306.372 122.229 313.047 124.486 320.368C126.747 327.688 138.367 336.411 160.103 323.793" stroke="#576E61" stroke-width="1.33333" stroke-miterlimit="10" stroke-linecap="round" stroke-linejoin="round"/>
</svg>
