<svg width="307" height="271" viewBox="0 0 307 271" fill="none" xmlns="http://www.w3.org/2000/svg">
<path d="M273.038 129.609C273.038 129.609 272.248 132.067 270.233 144.912C268.218 157.756 268.489 170.377 273.981 188.777C279.471 207.177 295.039 216.35 295.039 216.35C295.039 216.35 301.693 201.525 292.344 185.457C282.994 169.388 290.207 167.938 283.141 145.392C276.073 122.848 271.265 123.815 271.265 123.815C271.265 123.815 269.727 132.81 263.22 138.953C256.715 145.094 244.203 163.226 254.014 187.315C263.826 211.404 286.41 217.477 311.169 229.84C311.169 229.84 289.261 221.569 262.712 215.278C236.163 208.987 221.335 211.393 206.152 223.64C190.97 235.887 181.276 251.221 181.276 251.221C181.276 251.221 204.622 254.2 220.448 248.179C236.274 242.158 259.597 220.129 259.597 220.129C259.597 220.129 244.942 214.489 226.209 224.205C207.475 233.921 194.06 245.71 194.06 245.71" stroke="#576E61" stroke-width="1.33333" stroke-miterlimit="10" stroke-linecap="round" stroke-linejoin="round"/>
<path d="M262.712 215.278C234.756 205.856 215.575 195.684 184.651 182.432C153.728 169.177 137.146 160.174 125.517 150.579C113.887 140.985 106.732 134.649 105.807 118.611C104.88 102.572 107.899 92.3655 115.922 82.8429C123.946 73.3203 126.817 71.7969 128.6 74.7847C130.384 77.7717 133.268 88.753 140.737 96.4787C148.204 104.206 135.053 141.863 131.507 144.894C127.959 147.925 116.829 144.18 97.0592 152.025C77.2903 159.868 63.5592 154.956 55.338 147.517C47.1153 140.077 42.1845 135.052 42.7776 130.944C43.3713 126.835 59.5891 108.804 77.2577 113.297C94.9264 117.79 119.109 137.705 119.109 137.705C119.109 137.705 120.404 125.771 111.535 112.114C102.667 98.454 109.671 82.8493 95.2489 76.6899C80.8279 70.5288 60.0803 93.0887 54.497 99.9568C52.156 102.838 50.586 105.35 49.5496 107.296C48.2776 109.687 48.6324 112.606 50.4586 114.607L54.078 118.573" stroke="#576E61" stroke-width="1.33333" stroke-miterlimit="10" stroke-linecap="round" stroke-linejoin="round"/>
<path d="M120.809 146.624C120.809 146.624 115.536 165.16 107.067 170.108C98.5965 175.054 86.0821 177.874 77.8303 178.858C69.577 179.841 53.8827 173.735 48.701 165.785C43.5193 157.835 63.1711 142.595 74.9948 138.528C86.8186 134.461 109.727 139.118 109.727 139.118C99.36 131.463 95.1133 122.09 92.2598 112.328C91.9392 111.233 93.1014 110.281 94.1011 110.828C99.3176 113.679 103.649 117.344 106.199 122.646" stroke="#576E61" stroke-width="1.33333" stroke-miterlimit="10" stroke-linecap="round" stroke-linejoin="round"/>
<path d="M127.858 259.823C127.858 259.823 120.543 265.052 113.388 266.372C106.234 267.693 108.486 265.11 101.891 259.962C95.2957 254.816 86.2032 247.923 92.3805 244.602C98.5577 241.281 109.677 227.993 114.006 227.748C118.334 227.502 118.993 229.517 112.568 233.04C106.145 236.561 89.1909 238.484 87.3355 235.307C85.4801 232.131 87.4992 230.068 84.0189 227.726C80.5408 225.383 76.6255 223.313 81.1036 217.512C85.5824 211.71 94.5817 208.719 102.418 206.924C110.254 205.128 127.502 205.683 140.269 208.914C153.038 212.143 146.648 218.025 138.459 217.475C130.27 216.923 110.764 215.826 100.4 212.112C90.0383 208.399 87.4467 204.423 92.0054 200.532C96.5641 196.64 103.634 194.815 115.583 192.21C127.532 189.605 132.737 195.064 143.961 201.039C155.183 207.013 160.135 206.423 158.81 212.859C157.483 219.294 164.996 226.573 156.273 237.656C147.549 248.739 151.371 256.235 137.96 258.965C124.549 261.694 111.047 257.667 108.78 252.274C106.513 246.882 113.711 245.113 119.068 232.832C124.424 220.55 130.396 213.857 142.982 211.224C155.569 208.592 188.007 190.968 214.355 195.617C214.355 195.617 205.101 178.642 199.637 160.878C194.172 143.116 199.337 127.779 205.07 115.353C210.802 102.928 213.081 100.983 214.171 104.127C215.259 107.272 208.772 119.983 206.372 123.593C203.97 127.202 195.904 132.644 195.904 132.644C195.904 132.644 195.123 104.796 203.792 92.4383C212.463 80.0828 214.682 82.7959 221.74 83.7778C228.799 84.7581 232.315 77.2752 237.148 81.4745C241.981 85.6738 241.584 91.4331 232.522 103.615C223.463 115.796 223.961 126.175 218.721 130.541C213.48 134.908 195.563 135.146 195.563 135.146C195.563 135.146 185.087 130.289 179.357 125.998C173.627 121.709 171.6 109.862 163.89 100.934C156.18 92.0053 153.289 86.9584 155.722 82.5816C158.154 78.2064 174.615 76.6889 180.499 78.5476C186.383 80.4069 195.386 95.8537 194.313 108.338C194.313 108.338 189.36 101.273 183.709 91.237C178.059 81.2021 175.565 78.0526 179.92 70.7887C184.273 63.5242 191.663 65.1591 198.117 63.6627C204.568 62.1657 204.768 54.7564 213.062 54.7288C221.355 54.7013 227.57 56.8661 230.845 63.4916C234.121 70.1179 229.834 78.9736 229.834 78.9736C229.834 78.9736 231.876 66.7666 222.557 62.1156C213.24 57.4653 207.397 64.2171 199.924 57.8934C192.45 51.5713 179.865 49.6729 172.53 57.3163C168.861 61.1384 167.265 64.1718 166.586 66.2497C165.974 68.1257 164.91 69.8078 163.388 71.065C161.573 72.5603 159.771 75.2012 161.18 79.3882" stroke="#576E61" stroke-width="1.33333" stroke-miterlimit="10" stroke-linecap="round" stroke-linejoin="round"/>
</svg>
