<svg width="192" height="261" viewBox="0 0 192 261" fill="none" xmlns="http://www.w3.org/2000/svg">
<path d="M26.4631 260.5C-1.99995 213.5 -6.49997 201 13 168.5C32.5 136 60 154.5 60 168.5C60 188.058 36.0504 198.711 26.4631 173.986C16.9631 149.486 8.50005 116.5 34 90C47.5 75.9706 98.963 58.3411 104.963 54.8411C110.963 51.3411 106.963 47.8411 101.963 47.8411C97.963 47.8411 66.4631 70.3411 62.9631 70.3411C59.4631 70.3411 26.4631 72.3411 26.4631 61.3411C26.4631 45.8411 75.963 51.3411 75.463 54.8411C74.963 58.3411 35.6167 44.3323 44.9631 38.3411C64.4631 25.8411 58.9631 5.84106 69.9631 2.34106C102.925 -8.14689 92.963 46.3411 95.463 45.8411C97.963 45.3411 93.0322 13.1609 95.463 9.34106C98.963 3.84106 104.463 2.84106 108.463 11.3411C111.685 18.1873 97.463 42.3411 99.963 45.8411C102.36 49.1962 109.963 48.8411 113.963 47.8411C117.963 46.8411 110.963 39.8411 104.963 44.8411C97.4832 51.0743 115.963 24.3411 128.463 24.3411C140.963 24.3411 147.865 28.1439 159.463 19.3411C166.5 14 179.5 11.3411 191.5 19.3411" stroke="#576E61" stroke-width="1.4"/>
</svg>
