<svg width="157" height="189" viewBox="0 0 157 189" fill="none" xmlns="http://www.w3.org/2000/svg">
<path d="M125 1.5C92.5002 25.5 113.878 114.907 135 121C161 128.5 164.5 71.4998 137.5 78.4998C110.5 85.4998 89 108 89 132.5C89 171.567 73.7625 185.5 26.0001 185.5M26.0001 185.5C20.6667 184.5 12.9001 177.5 16.5001 169.5C21.0001 159.5 37 176.5 26.0001 185.5ZM26.0001 185.5C19.5001 192 3.00006 184 12.5001 172C22.0001 160 9.75038 159.683 6.50004 162.5C-1.00017 169 1.00004 174.5 5.00004 174C9.00004 173.5 13.1323 167.905 14 164C15 159.5 3.5 157 11 154.5C17.5 152.333 26.5 159.833 30 154.5" stroke="#576E61" stroke-width="1.4"/>
</svg>
