<svg class="animated" id="freepik_stories-gunslinger" xmlns="http://www.w3.org/2000/svg" viewBox="0 0 500 500" version="1.1" xmlns:xlink="http://www.w3.org/1999/xlink" xmlns:svgjs="http://svgjs.com/svgjs"><style>svg#freepik_stories-gunslinger:not(.animated) .animable {opacity: 0;}svg#freepik_stories-gunslinger.animated #freepik--Floor--inject-344 {animation: 1s 1 forwards cubic-bezier(.36,-0.01,.5,1.38) slideRight;animation-delay: 0s;}svg#freepik_stories-gunslinger.animated #freepik--Shadows--inject-344 {animation: 1s 1 forwards cubic-bezier(.36,-0.01,.5,1.38) slideUp;animation-delay: 0s;}svg#freepik_stories-gunslinger.animated #freepik--Clouds--inject-344 {animation: 1s 1 forwards cubic-bezier(.36,-0.01,.5,1.38) zoomOut;animation-delay: 0s;}svg#freepik_stories-gunslinger.animated #freepik--Sun--inject-344 {animation: 1s 1 forwards cubic-bezier(.36,-0.01,.5,1.38) slideDown;animation-delay: 0s;}svg#freepik_stories-gunslinger.animated #freepik--Plants--inject-344 {animation: 1s 1 forwards cubic-bezier(.36,-0.01,.5,1.38) slideDown;animation-delay: 0s;}svg#freepik_stories-gunslinger.animated #freepik--Skull--inject-344 {animation: 1s 1 forwards cubic-bezier(.36,-0.01,.5,1.38) slideUp;animation-delay: 0s;}svg#freepik_stories-gunslinger.animated #freepik--Character--inject-344 {animation: 1s 1 forwards cubic-bezier(.36,-0.01,.5,1.38) zoomOut;animation-delay: 0s;}            @keyframes slideRight {                0% {                    opacity: 0;                    transform: translateX(30px);                }                100% {                    opacity: 1;                    transform: translateX(0);                }            }                    @keyframes slideUp {                0% {                    opacity: 0;                    transform: translateY(30px);                }                100% {                    opacity: 1;                    transform: inherit;                }            }                    @keyframes zoomOut {                0% {                    opacity: 0;                    transform: scale(1.5);                }                100% {                    opacity: 1;                    transform: scale(1);                }            }                    @keyframes slideDown {                0% {                    opacity: 0;                    transform: translateY(-30px);                }                100% {                    opacity: 1;                    transform: translateY(0);                }            }        </style><g id="freepik--Floor--inject-344" class="animable" style="transform-origin: 249.97px 354.41px;"><ellipse id="freepik--floor--inject-344" cx="249.97" cy="354.41" rx="237.19" ry="136.94" style="fill: rgb(245, 245, 245); transform-origin: 249.97px 354.41px;" class="animable"></ellipse></g><g id="freepik--Shadows--inject-344" class="animable" style="transform-origin: 313.465px 387.905px;"><ellipse id="freepik--Shadow--inject-344" cx="244.54" cy="412.39" rx="79.05" ry="45.64" style="fill: rgb(224, 224, 224); transform-origin: 244.54px 412.39px;" class="animable"></ellipse><ellipse id="freepik--shadow--inject-344" cx="394.23" cy="356.58" rx="67.21" ry="38.8" style="fill: rgb(224, 224, 224); transform-origin: 394.23px 356.58px;" class="animable"></ellipse></g><g id="freepik--Clouds--inject-344" class="animable" style="transform-origin: 394.312px 71.0432px;"><path id="freepik--Cloud--inject-344" d="M342.78,53.85c0-4.71,5.17-8,11-8.53,6.89-.65,11.78,2.42,11.94,7.84,4.5-1.84,9.25-.66,8.9,4.29,1.17-1.35,5.55-1.31,7.13-.93a6.17,6.17,0,0,1,3.92,3.34,4.63,4.63,0,0,1,.41,2.54c2.62-.86,8.59-1.39,10.09,1,2.66,4.29-8,4.42-10.11,3.12-.45,3.34-11.86,3.89-14.63.81-2.16,2.17-5.26,2.65-8.6,2.85-5.65.34-9.11-1.57-13.52-3.82-4.79,4.06-13.08,4.13-17.39-.51-1.1,1-4.14,1.36-6.57.78-1.59-.38-2-1.06-2-1.06a14,14,0,0,1-2.93.88c-3.13.65-9,0-6.51-2.86.83-1,3.88-1.57,5.17-1.27,1.37-2.69,6.85-5.23,10-3,.12-3.26,3.1-5.8,7.29-6.45C337.81,52.71,341.18,52.52,342.78,53.85Z" style="fill: rgb(235, 235, 235); transform-origin: 354.952px 57.7266px;" class="animable"></path><path id="freepik--cloud--inject-344" d="M427.7,82.34c0-4.17,4.57-7.07,9.75-7.56,6.1-.57,10.42,2.14,10.57,7,4-1.64,8.19-.59,7.88,3.8,1-1.2,4.92-1.17,6.31-.83a5.46,5.46,0,0,1,3.47,3A3.87,3.87,0,0,1,466,89.9c2.33-.76,7.62-1.23,8.94.91,2.35,3.79-7.05,3.91-9,2.77-.4,3-10.51,3.43-12.95.71-1.91,1.92-4.66,2.35-7.62,2.53-5,.29-8.07-1.4-12-3.39-4.24,3.59-11.58,3.66-15.4-.46-1,.92-3.66,1.21-5.81.7-1.42-.34-1.74-.94-1.74-.94a12.59,12.59,0,0,1-2.6.78c-2.77.58-7.93,0-5.76-2.53.73-.85,3.43-1.39,4.58-1.13,1.21-2.38,6.06-4.63,8.85-2.62.1-2.88,2.74-5.14,6.45-5.71C423.3,81.33,426.28,81.16,427.7,82.34Z" style="fill: rgb(235, 235, 235); transform-origin: 438.428px 85.7787px;" class="animable"></path></g><g id="freepik--Sun--inject-344" class="animable" style="transform-origin: 105.08px 67.3px;"><circle id="freepik--sun--inject-344" cx="105.08" cy="67.3" r="29.94" style="fill: rgb(255, 189, 167); transform-origin: 105.08px 67.3px;" class="animable"></circle></g><g id="freepik--Plants--inject-344" class="animable" style="transform-origin: 223.077px 259.568px;"><g id="freepik--Plant--inject-344" class="animable" style="transform-origin: 115.4px 369.24px;"><polygon points="106.32 392.23 80.39 382.28 104.93 389.65 81.01 373.07 105.25 384.95 88.98 362.38 107.96 382.17 98.19 354.15 111.48 379.76 106.4 349.3 115.4 378.64 117.21 346.25 118.79 378.56 127.41 349.89 123.52 379.13 135.78 354.76 126.09 381.59 145.11 360.19 127.64 384.87 150.41 372 127.4 388.9 150.41 381.13 125.92 392.22 106.32 392.23" style="fill: #576E61; transform-origin: 115.4px 369.24px;" id="elkkg8r41feq" class="animable"></polygon></g><g id="freepik--Cactus--inject-344" class="animable" style="transform-origin: 86.2821px 273.123px;"><g id="freepik--cactus--inject-344" class="animable" style="transform-origin: 102.62px 262.412px;"><path d="M113.24,207.17a10,10,0,0,0-10,10.05V276c0,11.41,1.19,25.62-6.11,30.79-6.8,4.82-15.2-.73-15.2-.73v8.82s16.22,7.17,30.79-1.64c8.94-5.4,10.61-12.68,10.61-30.66V217.22A10.05,10.05,0,0,0,113.24,207.17Z" style="fill: rgb(69, 90, 100); transform-origin: 102.63px 262.401px;" id="elubmsti1476i" class="animable"></path><path d="M106.29,286.71V217.16c0-8.25,6.74-9.94,6.94-10h0a10,10,0,0,0-10,10.05V276c0,11.41,1.19,25.62-6.11,30.79-6.8,4.82-15.2-.73-15.2-.73v1.25C88.54,311.72,106.29,314.38,106.29,286.71Z" style="fill: rgb(55, 71, 79); transform-origin: 97.575px 258.619px;" id="el6lrll5mjsjd" class="animable"></path><path d="M112.68,313.27c8.94-5.4,10.61-12.68,10.61-30.66V217.22a10.05,10.05,0,0,0-10.05-10.05h0c.21,0,7,1.73,7,10v59.51c0,7.11,1.35,26-7.56,33.19-8.64,7-20.59,6.89-30.76,3.89v1.16S98.11,322.08,112.68,313.27Z" style="fill: rgb(55, 71, 79); transform-origin: 102.605px 262.417px;" id="elfcwqbhf38u4" class="animable"></path><path d="M113.25,207.18s0,.5,0,.94c0-.44,0-1,0-.94a14.63,14.63,0,0,0-2.45,8v75.52c0,25.29-21.09,21.7-28.89,19.17v1.35c26.11,8.36,33.83-7.36,33.83-27.32V215.22A14.57,14.57,0,0,0,113.25,207.18Z" style="fill: rgb(55, 71, 79); transform-origin: 98.825px 260.345px;" id="elrqnlv9o93o" class="animable"></path></g><g id="freepik--cactus--inject-344" class="animable" style="transform-origin: 68.285px 277.101px;"><path d="M85.23,167.21V394.13c0,2.51-1.65,5-5,6.91a1.71,1.71,0,0,1-.23.13,22.1,22.1,0,0,1-7.56,2.43,29.59,29.59,0,0,1-8.3,0,22,22,0,0,1-7.56-2.43l-.24-.13c-3.3-1.91-5-4.4-5-6.91V167.21a16.9,16.9,0,1,1,33.8,0Z" style="fill: rgb(69, 90, 100); transform-origin: 68.285px 277.101px;" id="el5kwdrtp7sec" class="animable"></path><path d="M68.32,150.31h0c-.34.07-11.68,2.91-11.68,16.78V401.17l-.24-.13c-3.3-1.91-5-4.4-5-6.91V167.21A16.9,16.9,0,0,1,68.32,150.31Z" style="fill: rgb(55, 71, 79); transform-origin: 59.86px 275.74px;" id="elqpwyj5a3od" class="animable"></path><path d="M85.23,167.21V394.13c0,2.51-1.65,5-5,6.91a1.71,1.71,0,0,1-.23.13V167.1c0-13.87-11.35-16.71-11.7-16.78h0A16.91,16.91,0,0,1,85.23,167.21Z" style="fill: rgb(55, 71, 79); transform-origin: 76.765px 275.745px;" id="elehh2nhwuwkg" class="animable"></path><path d="M72.48,163.85V403.6a29.59,29.59,0,0,1-8.3,0V163.85a24.69,24.69,0,0,1,4.12-13.53s-.06,2.65-.06,2.65.08-2.66.1-2.65A24.63,24.63,0,0,1,72.48,163.85Z" style="fill: rgb(55, 71, 79); transform-origin: 68.33px 277.106px;" id="elmlxnuhvtt8n" class="animable"></path></g><path d="M52.27,191.93c-1-.57-1.93-1.16-2.87-1.78-.45-.3-.9-.61-1.36-.9l-.5-.33a1.12,1.12,0,0,0-.4-.18.34.34,0,0,0-.39.23.45.45,0,0,0,.24.46c.07,0,.2.19.27.24l.29.24.6.46c.39.28.77.55,1.17.82q1.18.81,2.43,1.53a.59.59,0,0,0,.75-.13A.48.48,0,0,0,52.27,191.93Z" style="fill: rgb(55, 71, 79); transform-origin: 49.6501px 190.767px;" id="el0ofi2a1y5ubj" class="animable"></path><path d="M51.15,211.29h0Z" style="fill: rgb(55, 71, 79); transform-origin: 51.15px 211.29px;" id="elltg2cwlejs" class="animable"></path><path d="M51,211.22c.7-.3.88-.55.52-.75l-.18-.07-.23,0a3.05,3.05,0,0,0-.52,0l-1,.11c-.72.08-1.43.18-2.15.27a.34.34,0,0,0-.26.46.55.55,0,0,0,.54.36l1.86-.16.88-.09.44,0,.24,0-.15-.07Z" style="fill: rgb(55, 71, 79); transform-origin: 49.4285px 210.995px;" id="elsp1bonjb1kl" class="animable"></path><path d="M52,169.08a.67.67,0,0,0-.36-.12l-.27-.13-.25-.12-.49-.24L49.7,168c-.33-.14-.65-.29-1-.42-.16-.06-.51-.25-.67-.09a.27.27,0,0,0,0,.3c0,.06.17.3.26.27l.22.16c.1.06.19.13.29.18l.38.21.86.46.88.45a1.75,1.75,0,0,0,1,.33.41.41,0,0,0,.38-.33A.46.46,0,0,0,52,169.08Z" style="fill: rgb(55, 71, 79); transform-origin: 50.1423px 168.639px;" id="elzurf2q18x1p" class="animable"></path><path d="M59.94,153.5a4.57,4.57,0,0,0-.76-.62l-.75-.54-.91-.67a5.1,5.1,0,0,0-1-.6.19.19,0,0,0-.25.1.36.36,0,0,0,.07.33,4.16,4.16,0,0,0,.77.74l.78.64.72.59a6.34,6.34,0,0,0,.79.57.5.5,0,0,0,.55,0A.38.38,0,0,0,59.94,153.5Z" style="fill: rgb(55, 71, 79); transform-origin: 58.1569px 152.588px;" id="elfeexa0fatvi" class="animable"></path><path d="M68.84,150.58a.71.71,0,0,0,0-.29c0-.14,0-.28,0-.42,0-.31,0-.62,0-.93s0-.59,0-.88v-.44c0-.12,0-.24,0-.35s0-.17,0-.26a.31.31,0,0,0,0-.1.33.33,0,0,0-.18-.27c-.08,0-.2,0-.22.07l0,.07a1.24,1.24,0,0,0-.2.65,8.4,8.4,0,0,0-.08.85,19.65,19.65,0,0,0,0,2,.54.54,0,0,0,.49.52.44.44,0,0,0,.26-.05s0,0,.11-.06a.24.24,0,0,0,.06-.11h0S68.84,150.59,68.84,150.58Z" style="fill: rgb(55, 71, 79); transform-origin: 68.6073px 148.721px;" id="elec3z7exn8go" class="animable"></path><path d="M52.13,228.65c-1,.37-1.86.82-2.8,1.2a16.13,16.13,0,0,0-2.45,1.05c-.22.13,0,.53.23.51a12.67,12.67,0,0,0,2.7-.79,24,24,0,0,0,2.86-1.2C53.17,229.16,52.55,228.48,52.13,228.65Z" style="fill: rgb(55, 71, 79); transform-origin: 49.8226px 230.017px;" id="eluvkqdycn9q" class="animable"></path><path d="M52,244.91a2.08,2.08,0,0,0-.79-.68,6,6,0,0,0-.6-.36,12.61,12.61,0,0,0-1.34-.63,9,9,0,0,0-1.42-.45c-.19,0-.54-.16-.72-.07-.37.18,0,.62.23.69s.42.16.63.23l.49.19c.33.14.65.28,1,.44s.62.34.92.52l.44.28.19.13a1.38,1.38,0,0,0,.52.24C51.79,245.53,52.13,245.22,52,244.91Z" style="fill: rgb(55, 71, 79); transform-origin: 49.5009px 244.074px;" id="eltfiy0yalace" class="animable"></path><path d="M53.5,270.49c-.34-.44-1,.09-1.38.28l-1.38.79a31,31,0,0,0-2.88,1.74c-.23.16.06.65.31.55,1-.43,2-1,3-1.49l1.5-.81C53,271.36,53.91,271,53.5,270.49Z" style="fill: rgb(55, 71, 79); transform-origin: 50.6902px 272.092px;" id="elstjhyipr5eh" class="animable"></path><path d="M53.07,293.62l-.65-.49-1.39-1-1.35-1a4.26,4.26,0,0,0-1.48-.86c-.13,0-.22.12-.19.24a2.3,2.3,0,0,0,.87,1l.54.43,1.13.88c.76.59,1.55,1.15,2.29,1.76a.52.52,0,0,0,.63.09.38.38,0,0,0,.16-.39C53.58,294,53.3,293.79,53.07,293.62Z" style="fill: rgb(55, 71, 79); transform-origin: 50.8208px 292.504px;" id="elnmh843uces" class="animable"></path><path d="M52.62,306.53a6,6,0,0,0-1.18.78c-.38.25-.76.5-1.16.74-.83.51-1.68,1-2.54,1.47-.25.13.08.64.32.54a19.11,19.11,0,0,0,2.79-1.3c.41-.23.8-.47,1.19-.72l.55-.36a2.25,2.25,0,0,0,.67-.55C53.48,306.78,52.93,306.41,52.62,306.53Z" style="fill: rgb(55, 71, 79); transform-origin: 50.4807px 308.29px;" id="el15ceifgtxvq" class="animable"></path><path d="M53.49,333.49a7.79,7.79,0,0,0-1.52-.71c-.52-.22-1-.41-1.57-.6s-1.11-.36-1.67-.51c-.25-.07-.51-.13-.77-.18s-.38-.1-.55.07a.2.2,0,0,0,0,.21,2.73,2.73,0,0,0,1.21.58c.5.17,1,.36,1.49.54s1,.38,1.43.59a16.4,16.4,0,0,0,1.61.71A.39.39,0,0,0,53.49,333.49Z" style="fill: rgb(55, 71, 79); transform-origin: 50.5332px 332.83px;" id="el8cjbf2wo7gq" class="animable"></path><path d="M83.47,191.93c1-.57,1.93-1.16,2.87-1.78.45-.3.9-.61,1.36-.9l.5-.33a1.12,1.12,0,0,1,.4-.18A.33.33,0,0,1,89,189a.45.45,0,0,1-.24.46c-.07,0-.2.19-.26.24l-.3.24c-.2.16-.39.31-.6.46-.38.28-.77.55-1.17.82q-1.19.81-2.43,1.53a.6.6,0,0,1-.75-.13A.48.48,0,0,1,83.47,191.93Z" style="fill: rgb(55, 71, 79); transform-origin: 86.0921px 190.78px;" id="el8rjr98ytu6l" class="animable"></path><path d="M84.59,211.29h0Z" style="fill: rgb(55, 71, 79); transform-origin: 84.59px 211.29px;" id="el1k5x3w5djw9" class="animable"></path><path d="M84.76,211.22c-.71-.3-.89-.55-.53-.75l.18-.07.23,0a3.05,3.05,0,0,1,.52,0l1,.11c.72.08,1.44.18,2.15.27a.34.34,0,0,1,.26.46.55.55,0,0,1-.54.36l-1.85-.16-.88-.09-.44,0-.25,0,.16-.07Z" style="fill: rgb(55, 71, 79); transform-origin: 86.3217px 210.995px;" id="el5u79vpjow22" class="animable"></path><path d="M84.28,169.15a.41.41,0,0,0,.38.33,1.77,1.77,0,0,0,1-.33l.88-.45c.29-.14.57-.3.86-.46l.38-.21.29-.17.22-.17c.09,0,.24-.21.26-.27a.27.27,0,0,0,0-.3c-.16-.15-.51,0-.67.09-.33.13-.65.28-1,.43l-.94.43-.5.24-.24.12-.27.13a.73.73,0,0,0-.37.12A.48.48,0,0,0,84.28,169.15Z" style="fill: rgb(55, 71, 79); transform-origin: 86.4372px 168.268px;" id="elihnapzhi4p" class="animable"></path><path d="M75.8,153.5a5,5,0,0,1,.76-.62l.75-.54.91-.67a5.1,5.1,0,0,1,1-.6.19.19,0,0,1,.25.1.36.36,0,0,1-.07.33,4.16,4.16,0,0,1-.77.74c-.26.21-.52.42-.77.64s-.48.4-.73.59a6.23,6.23,0,0,1-.78.57.52.52,0,0,1-.56,0A.38.38,0,0,1,75.8,153.5Z" style="fill: rgb(55, 71, 79); transform-origin: 77.5831px 152.588px;" id="el7bdzxdl2n5y" class="animable"></path><path d="M83.61,228.65c1,.37,1.86.82,2.81,1.2a16,16,0,0,1,2.44,1.05c.22.13,0,.53-.23.51a12.84,12.84,0,0,1-2.7-.79,24.69,24.69,0,0,1-2.86-1.2C82.57,229.16,83.2,228.48,83.61,228.65Z" style="fill: rgb(55, 71, 79); transform-origin: 85.9182px 230.017px;" id="elalg96bga7" class="animable"></path><path d="M83.79,244.91a2.16,2.16,0,0,1,.79-.68q.3-.19.6-.36a13.6,13.6,0,0,1,1.34-.63,9,9,0,0,1,1.42-.45c.19,0,.54-.16.72-.07.37.18,0,.62-.23.69s-.42.16-.63.23l-.48.19c-.33.14-.66.28-1,.44s-.62.34-.92.52l-.44.28-.19.13a1.38,1.38,0,0,1-.52.24C84,245.53,83.61,245.22,83.79,244.91Z" style="fill: rgb(55, 71, 79); transform-origin: 86.2805px 244.074px;" id="eleijy1uauaj" class="animable"></path><path d="M82.25,270.49c.34-.44,1,.09,1.37.28l1.39.79c1,.55,2,1.09,2.88,1.74.22.16-.07.65-.32.55a32.94,32.94,0,0,1-3-1.49l-1.5-.81C82.74,271.36,81.83,271,82.25,270.49Z" style="fill: rgb(55, 71, 79); transform-origin: 85.0546px 272.092px;" id="el8mlk839xavm" class="animable"></path><path d="M82.67,293.62l.66-.49,1.38-1,1.35-1a4.26,4.26,0,0,1,1.48-.86.18.18,0,0,1,.19.24,2.3,2.3,0,0,1-.87,1l-.54.43-1.13.88c-.76.59-1.55,1.15-2.29,1.76a.52.52,0,0,1-.63.09.4.4,0,0,1-.16-.39C82.16,294,82.44,293.79,82.67,293.62Z" style="fill: rgb(55, 71, 79); transform-origin: 84.9226px 292.503px;" id="elgq5809jq8j4" class="animable"></path><path d="M100.12,288.15a6.44,6.44,0,0,1,1.17.78c.38.26.77.51,1.16.75.83.5,1.68,1,2.54,1.46.26.14-.07.64-.32.55a19.67,19.67,0,0,1-2.79-1.31c-.4-.23-.8-.47-1.19-.72l-.54-.36a2.22,2.22,0,0,1-.67-.54C99.25,288.4,99.81,288,100.12,288.15Z" style="fill: rgb(55, 71, 79); transform-origin: 102.255px 289.909px;" id="elrrehrlmkww" class="animable"></path><path d="M82.26,333.49a7.44,7.44,0,0,1,1.51-.71c.52-.22,1-.41,1.58-.6s1.1-.36,1.66-.51c.26-.07.51-.13.77-.18s.38-.1.55.07a.17.17,0,0,1,0,.21,2.73,2.73,0,0,1-1.21.58c-.5.17-1,.36-1.49.54s-1,.38-1.42.59a16.57,16.57,0,0,1-1.62.71A.39.39,0,0,1,82.26,333.49Z" style="fill: rgb(55, 71, 79); transform-origin: 85.2227px 332.826px;" id="el4rg54icfuue" class="animable"></path><path d="M104.51,266.57a.5.5,0,0,0-.56-.24l-1.78.58-1,.32a6.81,6.81,0,0,0-.89.34c-.13.07-.08.27,0,.36a.34.34,0,0,0,.34.19,9.51,9.51,0,0,0,1-.27l.88-.27,1.79-.54A.31.31,0,0,0,104.51,266.57Z" style="fill: rgb(55, 71, 79); transform-origin: 102.378px 267.218px;" id="elpgtflockli" class="animable"></path><path d="M103.54,249.09l-1.69-1c-.59-.35-1.19-.68-1.78-1a.17.17,0,0,0-.25.12.36.36,0,0,0,.15.35c.28.22.53.46.81.67l.73.54c.49.38,1,.74,1.49,1.1a.56.56,0,0,0,.73-.09A.45.45,0,0,0,103.54,249.09Z" style="fill: rgb(55, 71, 79); transform-origin: 101.819px 248.517px;" id="eldtppprlu7j8" class="animable"></path><path d="M104.48,230.78a.57.57,0,0,0-.69-.15l-.14.06-.2.09L103,231l-.95.45c-.64.31-1.27.62-1.88,1-.13.08-.06.3,0,.39a.37.37,0,0,0,.39.17c.69-.23,1.36-.52,2-.82s1.23-.53,1.83-.82A.37.37,0,0,0,104.48,230.78Z" style="fill: rgb(55, 71, 79); transform-origin: 102.343px 231.795px;" id="el97bbeq0ozjr" class="animable"></path><path d="M103.79,230.63Z" style="fill: rgb(55, 71, 79); transform-origin: 103.79px 230.63px;" id="elphuzzbku2t" class="animable"></path><path d="M104.13,216.84l-.21-.07-.4-.12-1.09-.34-.79-.24a6.7,6.7,0,0,0-1.17-.3c-.3,0-.19.44,0,.54a5.61,5.61,0,0,0,1,.44l.84.32.93.36.38.14.21.07s0,0,0,0a1.17,1.17,0,0,0,.26.1c.14,0,.41,0,.47-.14C104.7,217.13,104.4,216.94,104.13,216.84Z" style="fill: rgb(55, 71, 79); transform-origin: 102.44px 216.755px;" id="elj1g8flh684" class="animable"></path><path d="M109.34,209.21s0,0,0,0a.36.36,0,0,0,0-.19,1,1,0,0,0-.08-.14c0-.09-.11-.18-.17-.27a6.38,6.38,0,0,0-.49-.67,6.28,6.28,0,0,0-.49-.54,9.48,9.48,0,0,0-.85-.69.28.28,0,0,0-.39,0,.33.33,0,0,0,.07.42c.21.21.31.34.51.57a6.55,6.55,0,0,1,.39.53l.18.27h0l.05.07a.64.64,0,0,0,.08.14l.29.58a.59.59,0,0,0,.69.27.41.41,0,0,0,.25-.25v0Z" style="fill: rgb(55, 71, 79); transform-origin: 108.102px 208.109px;" id="elth1uqw5dvx9" class="animable"></path><path d="M126.61,288.15a6.52,6.52,0,0,0-1.18.78c-.38.26-.76.51-1.16.75-.83.5-1.68,1-2.54,1.46-.25.14.08.64.32.55a19.16,19.16,0,0,0,2.79-1.31c.4-.23.8-.47,1.19-.72l.54-.36a2.14,2.14,0,0,0,.68-.54C127.47,288.4,126.92,288,126.61,288.15Z" style="fill: rgb(55, 71, 79); transform-origin: 124.471px 289.909px;" id="elbn19bgwuqfg" class="animable"></path><path d="M122.21,266.57a.51.51,0,0,1,.56-.24l1.78.58,1,.32a6.94,6.94,0,0,1,.9.34c.12.07.07.27,0,.36a.37.37,0,0,1-.35.19,9.51,9.51,0,0,1-1-.27l-.88-.27-1.79-.54A.31.31,0,0,1,122.21,266.57Z" style="fill: rgb(55, 71, 79); transform-origin: 124.343px 267.218px;" id="elsw8yf78g1ro" class="animable"></path><path d="M123.18,249.09l1.7-1c.58-.35,1.18-.68,1.78-1a.16.16,0,0,1,.24.12.36.36,0,0,1-.15.35c-.27.22-.53.46-.81.67l-.73.54c-.49.38-1,.74-1.49,1.1a.57.57,0,0,1-.73-.09A.45.45,0,0,1,123.18,249.09Z" style="fill: rgb(55, 71, 79); transform-origin: 124.901px 248.515px;" id="elb5hltx8od1g" class="animable"></path><path d="M122.25,230.78a.56.56,0,0,1,.68-.15l.14.06.2.09.47.22.94.45c.64.31,1.27.62,1.88,1,.13.08.06.3,0,.39a.35.35,0,0,1-.38.17,21.18,21.18,0,0,1-2-.82c-.61-.27-1.23-.53-1.83-.82A.37.37,0,0,1,122.25,230.78Z" style="fill: rgb(55, 71, 79); transform-origin: 124.389px 231.796px;" id="el9shrlt0d1vv" class="animable"></path><path d="M122.94,230.63h0C122.84,230.58,122.77,230.55,122.94,230.63Z" style="fill: rgb(55, 71, 79); transform-origin: 122.889px 230.605px;" id="elq3m3stqsnqo" class="animable"></path><path d="M122.6,216.84l.2-.07.4-.12,1.09-.34.79-.24a6.93,6.93,0,0,1,1.17-.3c.31,0,.19.44,0,.54a5.85,5.85,0,0,1-1,.44l-.85.32-.93.36-.38.14-.2.07h0a1.09,1.09,0,0,1-.25.1c-.14,0-.41,0-.48-.14C122,217.13,122.32,216.94,122.6,216.84Z" style="fill: rgb(55, 71, 79); transform-origin: 124.279px 216.755px;" id="elyuzyvkrmj9" class="animable"></path><path d="M117.38,209.21s0,0,0,0a.49.49,0,0,1,0-.19,1,1,0,0,1,.08-.14l.17-.27a8.22,8.22,0,0,1,.49-.67,6.39,6.39,0,0,1,.5-.54,8.12,8.12,0,0,1,.84-.69.29.29,0,0,1,.4,0,.35.35,0,0,1-.07.42,6.91,6.91,0,0,0-.51.57c-.15.17-.27.35-.4.53l-.18.27h0l0,.07-.08.14c-.11.19-.2.39-.29.58a.6.6,0,0,1-.69.27.39.39,0,0,1-.25-.25v0Z" style="fill: rgb(55, 71, 79); transform-origin: 118.636px 208.108px;" id="elmagw5ldbqsf" class="animable"></path><path d="M114,208.29l0-.48c0-.37,0-.73-.06-1.1,0-.64-.11-1.27-.22-1.91a.44.44,0,0,0-.32-.36.23.23,0,0,0-.32.17c0-.19,0,.09,0,.13l0,.31c0,.18,0,.36,0,.53,0,.43,0,.86,0,1.3s0,.72,0,1.08v.53a.68.68,0,0,0,.33.64.46.46,0,0,0,.38.06.35.35,0,0,0,.14-.06.34.34,0,0,0,.1-.16C114.09,208.87,114,208.44,114,208.29Z" style="fill: rgb(55, 71, 79); transform-origin: 113.564px 206.814px;" id="elwy3igdo3ame" class="animable"></path><path d="M45.34,154.15a1.43,1.43,0,0,1,.33-1.46,2.5,2.5,0,0,1,1.31-.45,14.21,14.21,0,0,1,3.76.27,6.77,6.77,0,0,1-2.13-6.14.68.68,0,0,1,.67-.67,6.77,6.77,0,0,1,6.14,2.13,14.28,14.28,0,0,1-.28-3.76,2.62,2.62,0,0,1,.46-1.31,1.43,1.43,0,0,1,1.46-.33,2.93,2.93,0,0,1,1.3.84,9.71,9.71,0,0,1,2.83,7.18,8.23,8.23,0,0,1-7.83,7.83,9.67,9.67,0,0,1-7.18-2.83A2.93,2.93,0,0,1,45.34,154.15Z" style="fill: #576E61; transform-origin: 53.2294px 150.32px;" id="elp75m66smhxn" class="animable"></path></g><g id="freepik--cactus--inject-344" class="animable" style="transform-origin: 378.764px 186.332px;"><g id="freepik--cactus--inject-344" class="animable" style="transform-origin: 368.997px 169.656px;"><path d="M356,144.53v34.85c0,11.29,1.05,15.85,6.66,19.24,9.15,5.53,19.33,1,19.33,1v-5.54s-5.27,3.49-9.54.46c-4.59-3.24-3.84-6-3.84-13.14v-36.9a6.31,6.31,0,1,0-12.61,0Z" style="fill: rgb(240, 240, 240); transform-origin: 368.992px 169.653px;" id="eldsueaq2tuwf" class="animable"></path><path d="M366.68,182V144.49c0-5.18-4.23-6.24-4.36-6.26h0a6.31,6.31,0,0,1,6.3,6.31v36.9c0,7.16-.75,9.9,3.84,13.14,4.27,3,9.54-.46,9.54-.46v.79C377.81,197.65,366.68,199.32,366.68,182Z" style="fill: rgb(224, 224, 224); transform-origin: 372.16px 167.43px;" id="elleplml8w2fa" class="animable"></path><path d="M362.66,198.62c-5.61-3.39-6.66-8-6.66-19.24V144.53a6.32,6.32,0,0,1,6.31-6.31h0a6.07,6.07,0,0,0-4.37,6.26v37.34c0,4.46-.85,10.14,4.75,14.65,5.41,4.37,12.91,4.32,19.3,2.44v.73S371.81,204.15,362.66,198.62Z" style="fill: rgb(224, 224, 224); transform-origin: 368.995px 169.797px;" id="elxz9x3t2ivna" class="animable"></path><path d="M360.76,143.27v36.94c0,12.53,4.84,22.39,21.23,17.15v-.85c-4.9,1.59-18.13,3.84-18.13-12V143.27a9.12,9.12,0,0,0-1.54-5s0,.31,0,.59c0-.28,0-.59,0-.59A9.09,9.09,0,0,0,360.76,143.27Z" style="fill: rgb(224, 224, 224); transform-origin: 371.375px 168.533px;" id="el8miz67nscs3" class="animable"></path></g><g id="freepik--cactus--inject-344" class="animable" style="transform-origin: 390.495px 187.336px;"><path d="M379.89,126.38V253.11c0,1.57,1,3.13,3.11,4.33l.15.08a13.48,13.48,0,0,0,4.74,1.52,18.19,18.19,0,0,0,5.21,0,13.48,13.48,0,0,0,4.74-1.52l.15-.08c2.07-1.2,3.11-2.76,3.11-4.33V126.38a10.61,10.61,0,1,0-21.21,0Z" style="fill: rgb(240, 240, 240); transform-origin: 390.495px 187.336px;" id="el3yqae95jf47" class="animable"></path><path d="M390.5,115.77h0c.22,0,7.33,1.82,7.33,10.53V257.52l.15-.08c2.07-1.2,3.11-2.76,3.11-4.33V126.38A10.61,10.61,0,0,0,390.5,115.77Z" style="fill: rgb(224, 224, 224); transform-origin: 395.795px 186.645px;" id="eloijjcl3hgcd" class="animable"></path><path d="M379.89,126.38V253.11c0,1.57,1,3.13,3.11,4.33l.15.08V126.31c0-8.71,7.12-10.49,7.34-10.53h0A10.61,10.61,0,0,0,379.89,126.38Z" style="fill: rgb(224, 224, 224); transform-origin: 385.19px 186.65px;" id="el0cg2xiwo05l" class="animable"></path><path d="M387.89,124.27V259a18.19,18.19,0,0,0,5.21,0V124.27a15.41,15.41,0,0,0-2.59-8.49s0,1.66,0,1.66-.05-1.67-.06-1.66A15.38,15.38,0,0,0,387.89,124.27Z" style="fill: rgb(224, 224, 224); transform-origin: 390.495px 187.484px;" id="el2jtsrxak2as" class="animable"></path></g><path d="M400.57,141.89c.61-.36,1.21-.73,1.8-1.12l.86-.56.31-.21a.82.82,0,0,1,.25-.12.21.21,0,0,1,.24.15.28.28,0,0,1-.14.29c-.05,0-.13.12-.17.15l-.19.15c-.12.1-.24.2-.37.29s-.49.35-.74.51c-.49.34-1,.66-1.52,1a.36.36,0,0,1-.47-.08A.29.29,0,0,1,400.57,141.89Z" style="fill: rgb(224, 224, 224); transform-origin: 402.203px 141.175px;" id="el28ysdioqxvf" class="animable"></path><path d="M401.27,154h0Z" style="fill: rgb(224, 224, 224); transform-origin: 401.27px 154px;" id="elb78y3r506p9" class="animable"></path><path d="M401.38,154c-.45-.19-.56-.34-.33-.47l.11,0,.15,0,.32,0,.62.07,1.35.17a.22.22,0,0,1,.17.29.37.37,0,0,1-.34.23l-1.17-.11-.55,0-.28,0h-.15l.1,0Z" style="fill: rgb(224, 224, 224); transform-origin: 402.358px 153.91px;" id="elvx19ay32eyi" class="animable"></path><path d="M400.58,127.84a.26.26,0,0,0,.24.21,1.12,1.12,0,0,0,.61-.21l.55-.28c.19-.09.36-.19.54-.29l.24-.13.18-.11.14-.1c.06,0,.15-.13.17-.17a.19.19,0,0,0,0-.19c-.1-.1-.32,0-.42.06l-.61.26-.6.28-.3.15-.16.07-.17.08a.58.58,0,0,0-.23.08A.29.29,0,0,0,400.58,127.84Z" style="fill: rgb(224, 224, 224); transform-origin: 401.927px 127.289px;" id="el4rn37b2op96" class="animable"></path><path d="M395.76,117.77a3.71,3.71,0,0,1,.48-.39l.47-.34.57-.41a2.87,2.87,0,0,1,.62-.38.12.12,0,0,1,.16.06.23.23,0,0,1,0,.21,2.67,2.67,0,0,1-.49.46l-.48.4-.46.37a3.43,3.43,0,0,1-.49.36.3.3,0,0,1-.35,0A.23.23,0,0,1,395.76,117.77Z" style="fill: rgb(224, 224, 224); transform-origin: 396.892px 117.203px;" id="el6200u7e3g36" class="animable"></path><path d="M390.17,115.94a1.08,1.08,0,0,1,0-.18c0-.09,0-.18,0-.26s0-.39,0-.59,0-.37,0-.55a2.62,2.62,0,0,1,0-.28,1.62,1.62,0,0,1,0-.22.78.78,0,0,0,0-.16l0-.06a.21.21,0,0,1,.12-.17.09.09,0,0,1,.14,0v0a1,1,0,0,1,.13.42c0,.17,0,.35,0,.53,0,.42,0,.85,0,1.27a.34.34,0,0,1-.31.33.27.27,0,0,1-.16,0s0,0-.07,0a.25.25,0,0,1,0-.07h0S390.17,116,390.17,115.94Z" style="fill: rgb(224, 224, 224); transform-origin: 390.289px 114.734px;" id="elaea1jocics5" class="animable"></path><path d="M400.66,164.93c.59.23,1.17.52,1.76.75a10.5,10.5,0,0,1,1.54.66c.13.09,0,.34-.15.32a8.46,8.46,0,0,1-1.7-.49,14.78,14.78,0,0,1-1.79-.76C400,165.25,400.4,164.82,400.66,164.93Z" style="fill: rgb(224, 224, 224); transform-origin: 402.107px 165.787px;" id="elfy6npu6pee6" class="animable"></path><path d="M400.77,175.13a1.4,1.4,0,0,1,.5-.43l.37-.22a6.53,6.53,0,0,1,.85-.39,5.15,5.15,0,0,1,.89-.29c.12,0,.34-.1.45,0s0,.39-.15.43-.26.1-.39.15l-.31.12c-.2.08-.41.17-.61.27l-.57.33a2.61,2.61,0,0,0-.28.17l-.12.09a1.24,1.24,0,0,1-.33.15C400.87,175.52,400.66,175.33,400.77,175.13Z" style="fill: rgb(224, 224, 224); transform-origin: 402.307px 174.633px;" id="eldmmdtp0xxt4" class="animable"></path><path d="M399.8,191.18c.22-.27.66.06.87.18l.86.49a19.37,19.37,0,0,1,1.81,1.1c.14.1,0,.4-.19.34a20.34,20.34,0,0,1-1.87-.93l-.94-.51C400.11,191.73,399.54,191.52,399.8,191.18Z" style="fill: rgb(224, 224, 224); transform-origin: 401.565px 192.187px;" id="eln20a6ocztif" class="animable"></path><path d="M400.07,205.69l.41-.3.87-.65.84-.61a2.68,2.68,0,0,1,.94-.54c.08,0,.14.08.12.15a1.43,1.43,0,0,1-.55.62l-.34.27-.71.55c-.48.37-1,.72-1.44,1.11a.32.32,0,0,1-.39.05.22.22,0,0,1-.1-.24C399.75,205.9,399.92,205.8,400.07,205.69Z" style="fill: rgb(224, 224, 224); transform-origin: 401.484px 204.987px;" id="elef9dchiwzx" class="animable"></path><path d="M380.78,205.69l-.41-.3-.87-.65-.84-.61a2.68,2.68,0,0,0-.94-.54c-.08,0-.14.08-.12.15a1.43,1.43,0,0,0,.55.62l.34.27.71.55c.48.37,1,.72,1.44,1.11a.32.32,0,0,0,.39.05.22.22,0,0,0,.1-.24C381.1,205.9,380.93,205.8,380.78,205.69Z" style="fill: rgb(224, 224, 224); transform-origin: 379.366px 204.987px;" id="ele4yxvqty7ms" class="animable"></path><path d="M400.35,216a3.65,3.65,0,0,1,.74.49c.24.16.48.32.73.47.52.32,1.05.63,1.6.92.15.08-.05.4-.21.34a12.66,12.66,0,0,1-1.75-.82l-.74-.45-.35-.23a1.37,1.37,0,0,1-.42-.34C399.81,216.11,400.16,215.88,400.35,216Z" style="fill: rgb(224, 224, 224); transform-origin: 401.695px 217.097px;" id="elgh5ghkor1z" class="animable"></path><path d="M399.81,230.72a4.6,4.6,0,0,1,.95-.45c.32-.14.66-.26,1-.37s.69-.23,1-.32a3.89,3.89,0,0,1,.49-.12c.13,0,.23-.06.34,0a.12.12,0,0,1,0,.13,1.72,1.72,0,0,1-.77.36l-.93.34-.89.37a10.12,10.12,0,0,1-1,.44A.24.24,0,0,1,399.81,230.72Z" style="fill: rgb(224, 224, 224); transform-origin: 401.687px 230.267px;" id="elrhfe8m07539" class="animable"></path><path d="M381,141.89c-.61-.36-1.21-.73-1.8-1.12-.28-.19-.56-.38-.85-.56L378,140a.68.68,0,0,0-.24-.12.22.22,0,0,0-.25.15.29.29,0,0,0,.15.29s.13.12.17.15l.18.15.38.29c.24.17.48.35.73.51q.75.51,1.53,1a.36.36,0,0,0,.47-.08A.3.3,0,0,0,381,141.89Z" style="fill: rgb(224, 224, 224); transform-origin: 379.343px 141.175px;" id="el16d9h9jgc7n" class="animable"></path><path d="M380.29,154h0Z" style="fill: rgb(224, 224, 224); transform-origin: 380.29px 154px;" id="elj9h7xh8ygb" class="animable"></path><path d="M380.19,154c.44-.19.55-.34.33-.47l-.11,0-.15,0a3.16,3.16,0,0,0-.32,0l-.63.07-1.35.17a.22.22,0,0,0-.16.29.36.36,0,0,0,.34.23l1.16-.11.55,0,.28,0h.15l-.09,0Z" style="fill: rgb(224, 224, 224); transform-origin: 379.208px 153.908px;" id="elk86g7n2se2e" class="animable"></path><path d="M380.33,127.3a.58.58,0,0,0-.23-.08l-.16-.08-.16-.07-.31-.15-.59-.28-.62-.26c-.1,0-.31-.16-.41-.06a.19.19,0,0,0,0,.19s.11.18.16.17l.14.1.18.11.24.13.54.29.55.29a1.17,1.17,0,0,0,.62.2.27.27,0,0,0,.24-.21A.28.28,0,0,0,380.33,127.3Z" style="fill: rgb(224, 224, 224); transform-origin: 379.173px 127.044px;" id="eltwma387li4h" class="animable"></path><path d="M385.81,117.77a4.54,4.54,0,0,0-.48-.39l-.47-.34-.57-.41a2.71,2.71,0,0,0-.63-.38.12.12,0,0,0-.16.06.23.23,0,0,0,.05.21,2.62,2.62,0,0,0,.48.46l.49.4.45.37a3.52,3.52,0,0,0,.5.36.29.29,0,0,0,.34,0A.23.23,0,0,0,385.81,117.77Z" style="fill: rgb(224, 224, 224); transform-origin: 384.689px 117.202px;" id="el6q24prvb5ak" class="animable"></path><path d="M380.9,164.93c-.59.23-1.16.52-1.75.75a10.5,10.5,0,0,0-1.54.66c-.14.09,0,.34.14.32a8.28,8.28,0,0,0,1.7-.49,14.92,14.92,0,0,0,1.8-.76C381.56,165.25,381.17,164.82,380.9,164.93Z" style="fill: rgb(224, 224, 224); transform-origin: 379.458px 165.787px;" id="elfwl4oaeodum" class="animable"></path><path d="M380.79,175.13a1.45,1.45,0,0,0-.49-.43l-.38-.22a6.4,6.4,0,0,0-.84-.39,5.78,5.78,0,0,0-.89-.29.81.81,0,0,0-.46,0c-.23.11,0,.39.15.43s.27.1.4.15.2.08.3.12a6.64,6.64,0,0,1,1.19.6l.27.17.12.09a1.24,1.24,0,0,0,.33.15C380.69,175.52,380.91,175.33,380.79,175.13Z" style="fill: rgb(224, 224, 224); transform-origin: 379.228px 174.639px;" id="el98a6xk5k7k6" class="animable"></path><path d="M381.76,185.72c-.21-.28-.65.06-.86.18l-.87.49c-.61.35-1.23.69-1.81,1.1-.14.1,0,.4.2.34.64-.27,1.26-.61,1.87-.94l.94-.5C381.45,186.27,382,186.06,381.76,185.72Z" style="fill: rgb(224, 224, 224); transform-origin: 379.991px 186.725px;" id="el4jrs03miwsa" class="animable"></path><path d="M377.48,218.32l.41-.31.87-.65.85-.61a2.73,2.73,0,0,1,.93-.54c.08,0,.14.08.12.15a1.43,1.43,0,0,1-.55.62l-.34.27-.7.56c-.48.36-1,.71-1.44,1.1a.33.33,0,0,1-.4.05.24.24,0,0,1-.1-.24C377.16,218.53,377.34,218.42,377.48,218.32Z" style="fill: rgb(224, 224, 224); transform-origin: 378.895px 217.608px;" id="elvejlaplo0rj" class="animable"></path><path d="M370.55,182.86a4,4,0,0,0-.74.49l-.73.46c-.52.32-1.05.64-1.59.93-.16.08.05.39.2.34a12.66,12.66,0,0,0,1.75-.82l.75-.46.34-.22a1.4,1.4,0,0,0,.42-.34C371.09,183,370.74,182.78,370.55,182.86Z" style="fill: rgb(224, 224, 224); transform-origin: 369.207px 183.964px;" id="ely3d0h9mu0uk" class="animable"></path><path d="M381.76,230.72a4.85,4.85,0,0,0-.95-.45c-.33-.14-.66-.26-1-.37s-.7-.23-1.05-.32a4.21,4.21,0,0,0-.48-.12c-.14,0-.24-.06-.34,0a.11.11,0,0,0,0,.13,1.73,1.73,0,0,0,.76.36l.93.34.9.37a10,10,0,0,0,1,.44A.24.24,0,0,0,381.76,230.72Z" style="fill: rgb(224, 224, 224); transform-origin: 379.863px 230.268px;" id="elm01chct6u9" class="animable"></path><path d="M367.79,175.5a.32.32,0,0,1,.35-.16l1.12.37.6.2a4.25,4.25,0,0,1,.56.21c.07,0,0,.17,0,.23a.22.22,0,0,1-.22.12c-.22,0-.44-.11-.66-.17l-.55-.17-1.12-.34A.19.19,0,0,1,367.79,175.5Z" style="fill: rgb(224, 224, 224); transform-origin: 369.102px 175.902px;" id="el3f2x04gue4m" class="animable"></path><path d="M368.4,164.53l1.06-.65c.37-.23.74-.43,1.12-.64a.11.11,0,0,1,.16.08.27.27,0,0,1-.1.22c-.17.13-.33.28-.51.41l-.46.35c-.3.23-.62.46-.93.68a.35.35,0,0,1-.46,0A.28.28,0,0,1,368.4,164.53Z" style="fill: rgb(224, 224, 224); transform-origin: 369.475px 164.147px;" id="elnmw07bchj7" class="animable"></path><path d="M367.81,153a.39.39,0,0,1,.43-.09l.09,0,.13.06.29.14.59.28a13.25,13.25,0,0,1,1.18.62c.08,0,0,.19,0,.24a.22.22,0,0,1-.24.11c-.44-.14-.86-.33-1.28-.51l-1.15-.52A.24.24,0,0,1,367.81,153Z" style="fill: rgb(224, 224, 224); transform-origin: 369.159px 153.623px;" id="eljme6swu1tn9" class="animable"></path><path d="M368.25,152.94h0C368.19,152.91,368.14,152.89,368.25,152.94Z" style="fill: rgb(224, 224, 224); transform-origin: 368.217px 152.925px;" id="elpeakd7ag9ap" class="animable"></path><path d="M368,144.29l.13,0,.25-.08.68-.21.5-.15a3.93,3.93,0,0,1,.73-.19c.2,0,.12.27,0,.34a3.52,3.52,0,0,1-.63.27l-.53.21-.58.22-.24.09-.13,0h0a.44.44,0,0,1-.16.06c-.09,0-.25,0-.3-.08A.34.34,0,0,1,368,144.29Z" style="fill: rgb(224, 224, 224); transform-origin: 369.051px 144.255px;" id="eln36z3mmjqk8" class="animable"></path><path d="M364.76,139.5s0,0,0,0a.18.18,0,0,1,0-.12.41.41,0,0,1,.05-.09,1.63,1.63,0,0,1,.11-.17,4,4,0,0,1,.3-.42c.1-.12.2-.23.31-.34a5.25,5.25,0,0,1,.53-.43.18.18,0,0,1,.25,0,.21.21,0,0,1,0,.26,3.59,3.59,0,0,0-.32.36c-.09.11-.17.22-.25.34l-.11.16h0l0,0a.41.41,0,0,0-.05.09c-.07.12-.13.24-.19.36a.38.38,0,0,1-.43.17.24.24,0,0,1-.15-.16v0Z" style="fill: rgb(224, 224, 224); transform-origin: 365.552px 138.782px;" id="elfoie26y4wyr" class="animable"></path><path d="M353.93,182.86a3.88,3.88,0,0,1,.73.49l.73.46c.52.32,1.06.64,1.6.93.15.08-.05.39-.2.34a12.26,12.26,0,0,1-1.76-.82c-.25-.15-.5-.3-.74-.46l-.34-.22a1.28,1.28,0,0,1-.42-.34C353.38,183,353.73,182.78,353.93,182.86Z" style="fill: rgb(224, 224, 224); transform-origin: 355.268px 183.964px;" id="els7c7col58uh" class="animable"></path><path d="M356.68,175.5a.32.32,0,0,0-.35-.16l-1.12.37-.59.2a3.4,3.4,0,0,0-.56.21c-.08,0-.05.17,0,.23a.21.21,0,0,0,.21.12c.22,0,.45-.11.66-.17l.55-.17,1.13-.34A.19.19,0,0,0,356.68,175.5Z" style="fill: rgb(224, 224, 224); transform-origin: 355.366px 175.902px;" id="elu0d030uvq9" class="animable"></path><path d="M356.08,164.53l-1.07-.65c-.37-.23-.74-.43-1.12-.64a.1.1,0,0,0-.15.08.22.22,0,0,0,.1.22l.5.41.46.35c.31.23.62.46.94.68a.35.35,0,0,0,.46,0A.29.29,0,0,0,356.08,164.53Z" style="fill: rgb(224, 224, 224); transform-origin: 355px 164.146px;" id="el6k8acee8xmx" class="animable"></path><path d="M356.66,153a.38.38,0,0,0-.43-.09l-.09,0L356,153l-.29.14-.6.28a13.08,13.08,0,0,0-1.17.62c-.09,0,0,.19,0,.24a.21.21,0,0,0,.24.11c.43-.14.85-.33,1.27-.51l1.15-.52A.24.24,0,0,0,356.66,153Z" style="fill: rgb(224, 224, 224); transform-origin: 355.308px 153.638px;" id="els0h9yyw8zvb" class="animable"></path><path d="M356.23,152.94Z" style="fill: rgb(224, 224, 224); transform-origin: 356.23px 152.94px;" id="elc7bxqdvmfi6" class="animable"></path><path d="M356.44,144.29l-.12,0-.26-.08-.68-.21-.5-.15a3.56,3.56,0,0,0-.73-.19c-.19,0-.12.27,0,.34a3.76,3.76,0,0,0,.62.27l.54.21.58.22.24.09.13,0s0,0,0,0a.52.52,0,0,0,.16.06c.09,0,.26,0,.3-.08A.33.33,0,0,0,356.44,144.29Z" style="fill: rgb(224, 224, 224); transform-origin: 355.394px 144.255px;" id="elj3va3eu1b9o" class="animable"></path><path d="M359.71,139.5v0a.27.27,0,0,0,0-.12.41.41,0,0,1-.05-.09l-.11-.17c-.1-.14-.2-.29-.31-.42a3.28,3.28,0,0,0-.31-.34,3.69,3.69,0,0,0-.53-.43.18.18,0,0,0-.25,0,.21.21,0,0,0,.05.26c.13.13.2.22.32.36s.17.22.25.34l.11.16s0,0,0,0l0,0a.41.41,0,0,0,.05.09l.18.36a.38.38,0,0,0,.43.17.25.25,0,0,0,.16-.16v-.05Z" style="fill: rgb(224, 224, 224); transform-origin: 358.921px 138.782px;" id="elip5sn8o3bze" class="animable"></path><path d="M361.83,138.93c0-.1,0-.21,0-.31s0-.46,0-.68a12.1,12.1,0,0,1,.14-1.21.28.28,0,0,1,.2-.22.14.14,0,0,1,.2.11c0-.12,0,0,0,.08a1.23,1.23,0,0,0,0,.19c0,.11,0,.22,0,.33,0,.28,0,.55,0,.82s0,.45,0,.67,0,.23,0,.34a.41.41,0,0,1-.21.4.34.34,0,0,1-.24,0,.12.12,0,0,1-.08,0,.17.17,0,0,1-.07-.1C361.78,139.29,361.83,139,361.83,138.93Z" style="fill: rgb(224, 224, 224); transform-origin: 362.071px 137.984px;" id="elwxj9419o8ih" class="animable"></path></g><g id="freepik--plant--inject-344" class="animable" style="transform-origin: 77.125px 382.71px;"><polygon points="68.05 405.7 42.12 395.75 66.66 403.13 42.73 386.54 66.98 398.43 50.7 375.85 69.69 395.64 59.91 367.62 73.21 393.23 68.13 362.77 77.13 392.11 78.94 359.72 80.51 392.03 89.13 363.36 85.25 392.61 97.5 368.24 87.81 395.06 106.83 373.66 89.37 398.34 112.13 385.47 89.13 402.37 112.13 394.6 87.65 405.7 68.05 405.7" style="fill: #576E61; transform-origin: 77.125px 382.71px;" id="elp72aurgnuia" class="animable"></polygon><g id="el3gaj4skhbm3"><polygon points="68.05 405.7 42.12 395.75 66.66 403.13 42.73 386.54 66.98 398.43 50.7 375.85 69.69 395.64 59.91 367.62 73.21 393.23 68.13 362.77 77.13 392.11 78.94 359.72 80.51 392.03 89.13 363.36 85.25 392.61 97.5 368.24 87.81 395.06 106.83 373.66 89.37 398.34 112.13 385.47 89.13 402.37 112.13 394.6 87.65 405.7 68.05 405.7" style="opacity: 0.3; transform-origin: 77.125px 382.71px;" class="animable" id="elq1cwzuloh99"></polygon></g></g></g><g id="freepik--Skull--inject-344" class="animable" style="transform-origin: 382.773px 329.033px;"><g id="freepik--skull--inject-344" class="animable" style="transform-origin: 382.773px 329.033px;"><path d="M390.59,306.12c-.09-1.53,2.82-2,8.86-2.9A24,24,0,0,0,416,292c3.62-6.35,2.49-11,2.13-13.56-.26-1.78,1.81-1.78,3.09,1s3.69,10.3,1.89,17.76-9.34,16.79-22.48,19.77C392.64,318.73,390.59,306.12,390.59,306.12Z" style="fill: rgb(55, 71, 79); transform-origin: 407.171px 297.174px;" id="elkxjjivtol1k" class="animable"></path><path d="M380,311.56c3.74-.64,4.82-4.48,8.54-5.24s9.86.47,11,6.54c3.2,1.84,5,5.46,6.14,8.29s4.16,1.32,6.35,1.74,7,4.63,7.89,7.57-.88,5.21,2,8,8.55,7.14,10.08,11.33,3.95,7.17,8.11,11.6,5.25,6.8,5.1,10.32c-.19,4.25-2.64,5.07-2.64,5.07s-.83,1.39-1.8,1.21a6.73,6.73,0,0,1-6,2.84c-3-.06-7-3.27-10.36-3.51s-11,2.28-16.46-3.15S398.24,363.28,394,361.8s-9.86-1.6-14.91-2.46A26.17,26.17,0,0,1,366,353.05c-4-3.39-8.9-7.95-9.39-13.19s-.14-18.69,6.35-23.18C368.5,312.86,372.81,312.8,380,311.56Z" style="fill: rgb(255, 255, 255); transform-origin: 400.841px 343.484px;" id="elimosyz62hqq" class="animable"></path><path d="M440.59,377.16a13,13,0,0,0-2-7.86c-1.68-2.54-4.57-5.46-5.5-4.18-1.24,1.7-.59,4.4,1,6.31s4,4.1,4.61,5.88C439.24,378.72,440.18,379.43,440.59,377.16Z" style="fill: rgb(69, 90, 100); transform-origin: 436.531px 371.716px;" id="ell02r2zott4" class="animable"></path><path d="M432.57,366.32a6.17,6.17,0,0,0,1.52,5.11c1.59,1.9,4,4.1,4.61,5.88a2.61,2.61,0,0,0,.81,1.23,13,13,0,0,0-2-7.74C436.08,368.65,433.8,366.24,432.57,366.32Z" style="fill: rgb(38, 50, 56); transform-origin: 436.013px 372.429px;" id="elye5y8o4hfkl" class="animable"></path><path d="M442.43,376a19.51,19.51,0,0,0-1.77-7.68c-1.2-2.33-2.86-4.74-1.83-4.67s3.68,2.54,4.31,5.31a12,12,0,0,1,.24,5.73C443.06,375.86,442.47,376.9,442.43,376Z" style="fill: rgb(69, 90, 100); transform-origin: 441.063px 369.994px;" id="elh2gkzrxmx1r" class="animable"></path><path d="M439.18,365.57c.43.81,1,1.77,1.48,2.73a18.85,18.85,0,0,1,1.72,6.85A13.34,13.34,0,0,0,442,370,8.93,8.93,0,0,0,439.18,365.57Z" style="fill: rgb(38, 50, 56); transform-origin: 440.829px 370.36px;" id="elnkuq0y0l6q" class="animable"></path><path d="M408.17,331.92c3,1.36,4.52,4.51,5.77,7.38s2.22,6,3.92,8.67a22.16,22.16,0,0,0,6.24,6.41c2.52,1.77,5.19,3.28,7.6,5.21.75.61,1.56,1.15,2.27,1.8s1.3,1.27,1.92,1.94c1.15,1.24,2,2.69,3,4,.09.11.15-.08.12-.16a21.15,21.15,0,0,0-2.49-3.81,39.22,39.22,0,0,0-3.08-3.72c-2.21-2.37-5.19-4-7.81-5.89A23.82,23.82,0,0,1,419,347c-1.7-2.78-2.54-6-4-8.85a13.89,13.89,0,0,0-6.83-6.67C407.9,331.32,408,331.83,408.17,331.92Zm14.53,7.35c-.3-.27-.58-.54-.84-.79-2.71-2.68-1.25-4.87-1.87-7.61a4.73,4.73,0,0,1-2.23,1,1.9,1.9,0,0,0-1.13.39,1.51,1.51,0,0,0,0,1.58A9.51,9.51,0,0,0,422.7,339.27Zm-33.21-26.45a13.8,13.8,0,0,1-2.4-3.1,3.54,3.54,0,0,1-.14-2.82c-2.53,1.34-3.8,4.13-6.94,4.66-1.73.3-3.28.53-4.73.76,3.59.19,7.22-.13,10.78.41A12.31,12.31,0,0,0,389.49,312.82Zm50.94,65.51a3.34,3.34,0,0,1-1.91.94,7,7,0,0,1-3.75-.4,8.75,8.75,0,0,1-3.38-2.83c-1.55-2.08-2.55-4.57-4.41-6.37-2.4-2.34-6.6-3.17-8.43-6-1.93-3-2.23-6.57-4.81-9.24a18.31,18.31,0,0,0-8.16-4.82c-4-1.14-6.81-2.19-9.42-5.59-1.05-1.38-1.63-3.14-2.8-4.37-2.61-2.74-7.84-4.77-11.25-2.41a8.57,8.57,0,0,1-2.19,1.42,3.42,3.42,0,0,1-3.62-1.84,5.75,5.75,0,0,1,2.31-7.75c1.09-.54,2.67-1.28,2.25-2.42a1.74,1.74,0,0,0-.78-.83c-2.21-1.38-5.28-1.25-7.07-3.14a18.1,18.1,0,0,1-1.88-3.08,8.11,8.11,0,0,0-7-3.69c-.37.23-.75.48-1.13.74-6.49,4.49-6.84,17.94-6.35,23.18s5.38,9.8,9.39,13.19a26.17,26.17,0,0,0,13.05,6.29c5.05.86,10.66,1,14.91,2.46s8.45,7,13.93,12.39,13.07,2.9,16.46,3.15,7.34,3.45,10.36,3.51a6.7,6.7,0,0,0,5.76-2.57Zm-43.9-63.52a20.31,20.31,0,0,0,3,.13,14.12,14.12,0,0,1,3.26.95,11.16,11.16,0,0,0-3.31-3,8,8,0,0,0-1.38-3.32,3.58,3.58,0,0,1,.23,1.25c-.07,1.19-1.13,2-1.94,2.9-.25.27-.48.71-.22,1A.67.67,0,0,0,396.53,314.81Z" style="fill: rgb(240, 240, 240); transform-origin: 398.504px 343.868px;" id="eljp2s55i9l7" class="animable"></path><path d="M390.63,307.12h0c3.3,0,7.11,1.55,7.9,5.92l.08.45.4.23c2.33,1.35,4.19,3.89,5.7,7.79a3.74,3.74,0,0,0,3.9,2.41c.43,0,.86,0,1.27-.05s.78-.06,1.14-.06a3.62,3.62,0,0,1,.79.07c1.78.34,6.34,4.24,7.12,6.86a7.94,7.94,0,0,1,.22,2.69,6.7,6.7,0,0,0,2,5.76c.66.65,1.46,1.37,2.3,2.13,2.87,2.59,6.44,5.81,7.55,8.83,1.57,4.29,4,7.39,8.32,11.94s4.94,6.64,4.82,9.59c-.15,3.44-1.9,4.15-2,4.17l-.35.12-.19.31a1.83,1.83,0,0,1-.76.75l-.6-.11-.37.48a5.69,5.69,0,0,1-5,2.45h-.19a13.4,13.4,0,0,1-4.65-1.6,16.93,16.93,0,0,0-5.66-1.91,5.72,5.72,0,0,0-.6,0c-.75,0-1.63.08-2.57.17-1.14.1-2.43.22-3.77.22-3.83,0-6.65-1-8.88-3.23-1.42-1.4-2.74-2.79-4-4.14-3.71-3.92-6.91-7.31-10.29-8.48a47.54,47.54,0,0,0-9.75-1.8c-1.77-.2-3.6-.41-5.33-.71a25.25,25.25,0,0,1-12.57-6.06c-4.22-3.58-8.6-7.86-9-12.53s-.25-18,5.93-22.26c4.4-3,7.9-3.58,13.19-4.4,1.08-.17,2.21-.34,3.43-.55a9.24,9.24,0,0,0,4.85-2.88,7.75,7.75,0,0,1,3.73-2.37,9.45,9.45,0,0,1,1.88-.18m0-1a10.49,10.49,0,0,0-2.08.2c-3.72.76-4.8,4.6-8.54,5.24-7.2,1.24-11.51,1.3-17,5.12-6.49,4.49-6.84,17.94-6.35,23.18s5.38,9.8,9.39,13.19a26.17,26.17,0,0,0,13.05,6.29c5.05.86,10.66,1,14.91,2.46s8.45,7,13.93,12.39a12.93,12.93,0,0,0,9.59,3.52c2.49,0,4.76-.39,6.34-.39a4.44,4.44,0,0,1,.53,0c3.39.24,7.34,3.45,10.36,3.51h.21a6.7,6.7,0,0,0,5.77-2.84l.17,0c.89,0,1.63-1.23,1.63-1.23s2.45-.82,2.64-5.07c.15-3.52-.93-5.9-5.1-10.32s-6.57-7.42-8.11-11.6-7.23-8.53-10.08-11.33-1.09-5.09-2-8-5.7-7.15-7.89-7.57a5.19,5.19,0,0,0-1-.08c-.79,0-1.62.11-2.41.11a2.73,2.73,0,0,1-3-1.77c-1.1-2.83-2.94-6.45-6.14-8.29-.91-5-5.29-6.74-8.88-6.74Z" style="fill: rgb(224, 224, 224); transform-origin: 400.841px 343.488px;" id="eliy3usgfss5" class="animable"></path><path d="M385.54,335.69a3,3,0,0,0-1.61.06c-.95.4-1.26,1.58-1.36,2.6a11.61,11.61,0,0,0,1.82,8.07c2.24,3,6.23,4.13,10,4.38a14,14,0,0,0,4.48-.29,2.43,2.43,0,0,0,1.45-.83c.56-.78.2-1.86-.22-2.72C397.11,340.85,392.25,336.72,385.54,335.69Z" style="fill: rgb(69, 90, 100); transform-origin: 391.53px 343.236px;" id="el7mg3tc3a3vl" class="animable"></path><path d="M400.07,347c-3-6.11-7.82-10.24-14.53-11.27l-.63-.07c0,.23-.08.46-.1.68a11.61,11.61,0,0,0,1.82,8.07c2.24,3,6.23,4.13,10,4.38a14.6,14.6,0,0,0,4-.19A4.39,4.39,0,0,0,400.07,347Z" id="eljonnwsnd6q8" class="animable" style="transform-origin: 392.661px 342.255px;"></path><path d="M364.72,315.58c2.78.57,5.23,3.75,5.23,8.16s-1.92,7.92-7.5,9.75a61.92,61.92,0,0,1-20.5,3.09c-8.83,0-19.21-2.72-21.33-14-1.42-7.57,2.62-13.46,4.58-15.1,2.7-2.25,3.2-.77,2,2.42-1,2.76-2.43,9.93,5.42,13.3,6.52,2.79,14.81-1.13,19.48-3.55S361.07,314.83,364.72,315.58Z" style="fill: rgb(69, 90, 100); transform-origin: 345.137px 321.495px;" id="elddzlwx7tczk" class="animable"></path></g></g><g id="freepik--Character--inject-344" class="animable" style="transform-origin: 250px 231.915px;"><g id="freepik--Chartacter--inject-344" class="animable" style="transform-origin: 250px 231.915px;"><path d="M324.54,267.81c-1.71,5-14.46-11.32-27.54-19.08-22.83-13.54-44.79-22.34-99.8-14-12.25-16.25-9.27-94.13-8-103.66,0,0,1.86-11,6.21-14.46s29.34-11.07,41.36-15.54,42-8.5,46.56-3.61,12.23,25,18.44,44.69,13.77,55.05,17.54,65.53S327.44,259.39,324.54,267.81Z" style="fill: #576E61; transform-origin: 256.712px 181.986px;" id="ellputbm22z6g" class="animable"></path><g id="elkfeyn60aozf"><path d="M324.54,267.81c-1.71,5-14.46-11.32-27.54-19.08-22.83-13.54-44.79-22.34-99.8-14-12.25-16.25-9.27-94.13-8-103.66,0,0,1.86-11,6.21-14.46s29.34-11.07,41.36-15.54,42-8.5,46.56-3.61,12.23,25,18.44,44.69,13.77,55.05,17.54,65.53S327.44,259.39,324.54,267.81Z" style="opacity: 0.4; transform-origin: 256.712px 181.986px;" class="animable" id="elts9a0849er"></path></g><path d="M301.23,129.48c5,16.57,12.21,47,17.57,63.07,10.78,32.36,5.74,75.26,5.74,75.26s-4.17-38.43-27.54-50.07C306.22,184.9,304,149.44,301.23,129.48Z" style="fill: #576E61; transform-origin: 311.358px 198.645px;" id="elhw8as493qx" class="animable"></path><g id="elu0u4xq3to"><path d="M301.23,129.48c5,16.57,12.21,47,17.57,63.07,10.78,32.36,5.74,75.26,5.74,75.26s-4.17-38.43-27.54-50.07C306.22,184.9,304,149.44,301.23,129.48Z" style="opacity: 0.2; transform-origin: 311.358px 198.645px;" class="animable" id="elgook98ctoa"></path></g><g id="freepik--Bottom--inject-344" class="animable" style="transform-origin: 246.387px 316.027px;"><path d="M209.3,201.75c-4.09,41.26-6.84,95.9-6.84,95.9-.59,3.25-4.25,12-5.25,28-1.08,17.16-.84,57.86-.84,57.86s9.43,3.59,21.51-1.62c0,0,11.39-39,16.64-63.7,4.2-19.74,10-45.93,10-45.93l4.24,30.23a119.59,119.59,0,0,0-1.6,23.76c.55,10,5.33,48.07,5.33,48.07s12.19,10.12,23.86-.41c0,0,7.59-62.49,8.33-74.55,1.79-29.32.94-67.83.08-96.79Z" style="fill: rgb(69, 90, 100); transform-origin: 241.041px 293.233px;" id="elg52146k39r" class="animable"></path><path d="M244.54,272.23l8.3-35.57s11.56-.67,17.88-5.53c0,0-4.4,6.78-15.41,8.6l-7.73,31.77,1.2,31Z" style="fill: rgb(55, 71, 79); transform-origin: 257.63px 266.815px;" id="el1wztl21szyx" class="animable"></path><path d="M208.46,197.09a185.21,185.21,0,0,0,43.77,16.06c26.24,5.95,34,2.32,34,2.32v7s-5.26,4.75-36.87-1.36a144.11,144.11,0,0,1-41.77-15.44Z" style="fill: rgb(38, 50, 56); transform-origin: 246.91px 210.66px;" id="el8w0gf6pzdnj" class="animable"></path><polygon points="257.41 397.48 264.41 395.2 262.37 390.44 257.95 394.19 257.41 397.48" id="eltcygymcjptn" class="animable" style="transform-origin: 260.91px 393.96px;"></polygon><path d="M250.85,384.73s-.47,4.47-.6,5.88,5.7,6.07,7.16,6.87l.54-3.29c1.23,1.35,1.93,3,3.21,5.5,1.07,2.07,2.37,5.94,5.44,8.69,4.56,4.06,11.84,6.35,19.35,7s11.89-1,14.11-2.57,3-3.42,2.52-5.35S250.85,384.73,250.85,384.73Z" style="fill: rgb(38, 50, 56); transform-origin: 276.482px 400.128px;" id="ely33lwrvp2k" class="animable"></path><path d="M302.27,404.2c-.27-.28-.58-.57-.9-.87,0,0-13.08-13-17.42-18.21a22.69,22.69,0,0,1-5.31-16.77c.56-5.34,3.05-35.76,4.22-43.65s-9.14-4.08-15.08,0-13.85,14.38-13.85,14.38-4.62-12.43-6.74-14.36c0,0,2.6,29.4,3.93,39.38.45,3.31,0,9.36-.56,12.74-.43,2.74-.79,6.47.92,9a15,15,0,0,0,2.51,2.7c1.87,1.67,4,3.09,5.66,5,2.32,2.73,3.93,8.42,6.81,12.16S280,413,286.1,413.64C298.34,414.88,306.64,408.59,302.27,404.2Z" style="fill: rgb(55, 71, 79); transform-origin: 275.32px 366.951px;" id="eleiob2acx68" class="animable"></path><path d="M258,394.19c.09-5.85,1.78-11.55,8.12-15.75s13.1-5,13.88-3.07,3.09,7.75,3.09,7.75-3.86-2.63-13.1,3.35c-5.87,3.81-9.07,12.84-9.07,12.84Z" style="fill: #576E61; transform-origin: 270.545px 386.842px;" id="el9d3txcwllyr" class="animable"></path><polygon points="251.02 366.8 250.79 372.42 258.81 388.75 260.25 385.2 251.02 366.8" style="fill: #576E61; transform-origin: 255.52px 377.775px;" id="el74l6a35vsze" class="animable"></polygon><polygon points="247.13 368.69 249.94 366.69 249.52 370.11 252.66 371.55 249.48 372.89 249.81 376.33 247.05 374.25 244.24 376.25 244.66 372.82 241.53 371.39 244.7 370.04 244.38 366.61 247.13 368.69" style="fill: #576E61; transform-origin: 247.095px 371.47px;" id="elp4bnmllwik" class="animable"></polygon><path d="M215.17,413.61c-1.81,10.68-5.47,18.79-9.27,20.44s-9.75,1.59-13-4.66-3.67-12.66-3.56-19.18Z" style="fill: rgb(38, 50, 56); transform-origin: 202.247px 422.587px;" id="eloev93ocbf6j" class="animable"></path><path d="M199.47,331.48c9.13-11.09,19.26-16.05,23.67-13.35s7.91,15.41,6.82,21.62-8.62,29.82-10.33,36.94-2.67,10.59-2.92,18.78-.27,18.45-4.76,28.17c-3.6,7.8-6.64,9.06-9.59,9.1s-7.21-1.36-10-7.81a37.25,37.25,0,0,1-2.76-19.14c.88-6.91,4.41-13.06,5.62-22.5.73-5.72,1.47-56.32,1.47-56.32Z" style="fill: rgb(55, 71, 79); transform-origin: 209.748px 375.074px;" id="elkjn09f6ypv" class="animable"></path><path d="M217,401.64c-3.33-5.42-16.49-9.38-25.79-4.45l2.65-8.19c7.89-4.53,20.81-1.54,23.08,4.52Z" style="fill: #576E61; transform-origin: 204.105px 394.226px;" id="el9i2yq80wrve" class="animable"></path></g><g id="freepik--Top--inject-344" class="animable" style="transform-origin: 244.976px 146.848px;"><path d="M310.29,187c-.42-2.68-2.71-14.6-4.07-20.16-1.78-7.3-5.31-18.53-6.19-23.16-1.34-7-3.34-15.32-5.32-26.21-1.73-9.53-6.2-20.2-12.81-21.85a25.06,25.06,0,0,0-11-.56l-1.7,27.27s7.07,25.23,7.79,28.33,7.71,19.84,12.35,31.3c2.66,6.58,5.49,13.16,5.49,13.16a45.07,45.07,0,0,0,10-1.39A6.62,6.62,0,0,0,310.29,187Z" style="fill: rgb(240, 240, 240); transform-origin: 289.747px 144.908px;" id="el47gkjxbz2ux" class="animable"></path><path d="M300.59,210.89a18.91,18.91,0,0,1,2.11,4.73c1.05,4.11-.28,8.4-.91,12.6-.21,1.42-.23,2.71.88,3.75a1,1,0,0,0,.85.32,1,1,0,0,0,.55-.57,24.87,24.87,0,0,0,2.17-5.51,26.15,26.15,0,0,1,.12,5.38,9.3,9.3,0,0,0,.19,4.24c.54,1.33,2.21,2.32,3.43,1.58a3.71,3.71,0,0,0,1.34-2.39l.84-3.24a37.45,37.45,0,0,0,1-4.56,20.34,20.34,0,0,0-4.49-15.66,7.94,7.94,0,0,0-3.5-2.66,5,5,0,0,0-4,.46C300.4,209.81,300.15,210.12,300.59,210.89Z" style="fill: rgb(242, 143, 143); transform-origin: 306.856px 223.17px;" id="el2tg55c27xzu" class="animable"></path><path d="M315.2,217.34c-.79-5.52-1.32-11.33-2.71-16.51s-2-9.31-2-9.31L295.35,195c1.51,3.15,2.55,4.36.42,9.22a29.83,29.83,0,0,0-2.28,12,40.87,40.87,0,0,1-.87,7.43c-.41,1.77,2.36,2.13,4.28.53s1.52-3.83,2.49-6,2.38-6.5,3.68-5.56,2.82,4.28,4.59,6.51,2.68,3.66,2.61,7.22-1.57,8.39-.8,11.35,2.56,3.5,3.12,2.22,2.06-8.61,2.56-11.14A33.45,33.45,0,0,0,315.2,217.34Z" style="fill: rgb(255, 168, 167); transform-origin: 304.124px 216.046px;" id="elgx16q9jy1je" class="animable"></path><path d="M295.88,197.64a21.35,21.35,0,0,0,8.3-.42,14.28,14.28,0,0,0,7.62-3.95l-2.14-10.61c-4.33,4.42-11,5.23-17.89,5.61Z" style="fill: rgb(224, 224, 224); transform-origin: 301.785px 190.263px;" id="eln1mt9epl5bk" class="animable"></path><path d="M216.49,229.64c14.29,0,18.31-16.76,18.23-26.13H240c0,14.07-6.46,32.15-23.48,32.15Z" id="elx073uywty" class="animable" style="transform-origin: 228.245px 219.585px;"></path><path id="freepik--Chest--inject-344" d="M230.23,102.42c-2.89,1.27-21,5.79-23,12.35s-.8,9,2.29,41.12c.42,4.47,3.84,9.51,2.43,18.68-1.92,12.42-4.41,28.37-.63,31.87,0,0,6.81,10.1,45.61,6.28,23.92-2.35,28.51-10.34,28.51-10.34,1.34-3.3,1.57-26.57.8-44-1-23.22-3.51-46-6.77-52.25-4.52-8.68-10-9.91-20.72-9.47Z" style="fill: rgb(235, 235, 235); transform-origin: 246.463px 155.083px;" class="animable"></path><path d="M259.67,145.43c-.15-2.22-.26-4.49-.61-6.7,0-.17-.32-.42-.33-.12,0,2,.12,4,.24,6s.23,4.08.33,6.12q.31,6.08.54,12.13c.28,8,.41,16.05.44,24.08q0,6.94.14,13.89c0,.14.18.33.19.11.45-8.11.44-16.23.3-24.37s-.38-16.19-.83-24.27C260,150,259.82,147.73,259.67,145.43Z" style="fill: rgb(224, 224, 224); transform-origin: 259.863px 169.755px;" id="elqhjk0geajm" class="animable"></path><path d="M230.23,102.42,223,100.83c-6.55,3.75-15.17,8.42-15.17,8.42S200.91,120,204.2,144c1.68,12.25,1.64,18.8,2,36.68.25,12.83-1.16,29.52-1.16,29.52,10.73,15.33,36,11.36,36,11.36s.64-47.39.64-75.61S230.23,102.42,230.23,102.42Z" style="fill: rgb(55, 71, 79); transform-origin: 222.496px 161.426px;" id="elu63ha14s16" class="animable"></path><path d="M287.23,146.73c-1-38.61-7.16-48.46-13.92-52,0,0-9.65-.63-14.79-1,0,0,9.54,16.47,11.87,43.76,1.88,22,3.52,77.29,3.52,77.29s9.36-3.08,14-10.12C287.89,204.67,287.75,166.32,287.23,146.73Z" style="fill: rgb(55, 71, 79); transform-origin: 273.215px 154.255px;" id="elypuj0agqna" class="animable"></path><path d="M220.2,225.44s-4.91-2.46-10-4.89C206.62,218.88,203,219.4,199,222l15.62,8.27Z" style="fill: rgb(38, 50, 56); transform-origin: 209.6px 224.929px;" id="elp70pgozbsch" class="animable"></path><path d="M220.2,225.44a10.61,10.61,0,0,1-12,1.22C202.82,223.88,199,222,199,222s-2.26,15.64.52,20.85A31,31,0,0,1,203,257.24c0,3.82,2.08,5.38,4.34,6.95s5.51,0,9-2,3.83-6.49,3.83-18.3Z" style="fill: rgb(55, 71, 79); transform-origin: 209.167px 243.415px;" id="ela50zs5hz1gf" class="animable"></path><path d="M213.1,230.34c0-.16-.31-.44-.34-.17-.53,4.71-.65,9.5-.82,14.23s-.25,9.25-.33,13.88c0,2.16-.28,4.39-1.76,6.09-.06.07,0,.33.11.25a5.91,5.91,0,0,0,2.25-4.27,62.36,62.36,0,0,0,.47-6.84c.18-4.93.36-9.87.42-14.81C213.14,235.91,213.21,233.13,213.1,230.34Z" id="ele5bx10sbwbp" class="animable" style="transform-origin: 211.493px 247.346px;"></path><path d="M218.31,213.91v12.83a10.67,10.67,0,0,1-10.1-.08c-1.32-.68-2.54-1.31-3.64-1.86a10.79,10.79,0,0,0-.06-1.42c-.12-.67-1.46-1.77-2.16-3.1A3.52,3.52,0,0,1,202,219c-.16-1.92-.3-8.41.18-9.12S208,207.2,208,207.2a48.24,48.24,0,0,1,5.14,2C216.36,211.08,218.31,212.23,218.31,213.91Z" style="fill: rgb(224, 224, 224); transform-origin: 210.08px 217.586px;" id="eljmm2lunrsm" class="animable"></path><g id="elktdb9rk3mlo"><path d="M218.31,213.91v12.83a10.67,10.67,0,0,1-10.1-.08c-1.32-.68-2.54-1.31-3.64-1.86a10.79,10.79,0,0,0-.06-1.42c-.12-.67-1.46-1.77-2.16-3.1A3.52,3.52,0,0,1,202,219c-.16-1.92-.3-8.41.18-9.12S208,207.2,208,207.2a48.24,48.24,0,0,1,5.14,2C216.36,211.08,218.31,212.23,218.31,213.91Z" style="opacity: 0.2; transform-origin: 210.08px 217.586px;" class="animable" id="el98ny1m74i0f"></path></g><g id="elnyl30ai35w"><path d="M204.76,215.83a7.07,7.07,0,0,0-.08-1.84c-.05-.18-.34-.34-.44-.12a5.65,5.65,0,0,0-.23,1.83c0,.64,0,1.28,0,1.92s0,1.28,0,1.91a5.9,5.9,0,0,0,.37,2.09c0,.06.16.16.21.06a2.48,2.48,0,0,0,.18-1.05c0-.3,0-.61,0-.91,0-.66,0-1.33,0-2S204.76,216.46,204.76,215.83Z" style="opacity: 0.2; transform-origin: 204.396px 217.743px;" class="animable" id="elvb8f3bok33"></path></g><g id="ellqlww1r9xc"><path d="M207.55,217.53a7,7,0,0,0-.08-1.83c-.05-.18-.35-.35-.44-.12a5.55,5.55,0,0,0-.23,1.82c-.05.64,0,1.28,0,1.92s0,1.28,0,1.92a5.88,5.88,0,0,0,.37,2.08c0,.07.16.17.21.06a2.46,2.46,0,0,0,.18-1c0-.31,0-.61,0-.92,0-.66,0-1.32,0-2S207.55,218.17,207.55,217.53Z" style="opacity: 0.2; transform-origin: 207.177px 219.449px;" class="animable" id="elqobqd23clc"></path></g><g id="elo3qcb5add7d"><path d="M213.15,209.16a48.24,48.24,0,0,0-5.14-2s-5.4,2-5.88,2.67a.88.88,0,0,0-.1.28,2,2,0,0,0,.8.61,35.59,35.59,0,0,1,5.94,3.75,4,4,0,0,1,1.86,3.47c.29,3.21.06,6.44.11,9.65a10.6,10.6,0,0,0,7.57-.89V213.91C218.31,212.23,216.36,211.08,213.15,209.16Z" style="opacity: 0.2; transform-origin: 210.17px 217.541px;" class="animable" id="elde7nie7yl04"></path></g><path d="M213.41,211.23v-10.4c0-2.44-3.91-6.35-7.19-10.19s-6.36-8-8.52-6.5-4.26,2.45-4.4,4.4,0,6.54,0,8.37,3,2.66,6,4.62,5.94,3.91,5.94,6v3.56s2.44,1.33,3.49,2S213.41,211.23,213.41,211.23Z" style="fill: #576E61; transform-origin: 203.324px 198.515px;" id="elb5pyi7uil7w" class="animable"></path><g id="eldoholc1uhu9"><path d="M207.29,199.06a115.2,115.2,0,0,0-9.37-9.12c-1.25-1.05-2.83-2.11-4.39-1.64l-.2.08a.9.9,0,0,0,0,.16c-.14,2,0,6.54,0,8.37s3,2.66,6,4.62,5.94,3.91,5.94,6v3.56s2.44,1.33,3.49,2a.66.66,0,0,0,.21.08c0-3.14.07-6.27.1-9.4a5,5,0,0,0-1.75-4.67Z" style="opacity: 0.2; transform-origin: 201.202px 200.678px;" class="animable" id="eluod2h7ltotf"></path></g><path d="M198,199.54c.34,4.89.93,10.34,1,11.71s-.1,2.85,2.48,4.22,4.52,1.62,7,4.58,4.92,5.37,6.79,6.31-.14,4.34-4.57,2.37-6.93-4.36-7.94-4-1.16,1.88-.28,6.18a36,36,0,0,0,2,6.67c.54,1.69,4.76,5.53,5.75,7.09s.95,3.37.19,4.09-2.41-.33-4.44-2.3c-1.39-1.35-3.48-3-4.25-4.14s-1.58-2.26-1.58-2.26a24,24,0,0,0,1.67,4.07c.73,1.14,3.55,4,4.43,5.41a3.16,3.16,0,0,1-.3,3.58c-.5.55-.76,1.38-3.45-1.31a44.15,44.15,0,0,1-3.75-4.09,4,4,0,0,1-3.91-1.22,39.91,39.91,0,0,1-4.19-6,5.47,5.47,0,0,1-3.34-2.77c-1.1-2.23-2.55-5.78-3.61-8.66s-.53-10.2-1.11-15.26S181,199.06,181,199.06Z" style="fill: rgb(255, 168, 167); transform-origin: 198.484px 226.373px;" id="el8xgxbd8sl0b" class="animable"></path><path d="M198.76,247.75a26.27,26.27,0,0,1-3.86-5.91,31.59,31.59,0,0,1-2.38-6.65c.88,2.18,1.75,4.35,2.8,6.44A52.6,52.6,0,0,0,198.76,247.75Z" style="fill: rgb(242, 143, 143); transform-origin: 195.64px 241.47px;" id="el3xrovosdas5" class="animable"></path><path d="M190.66,240.52a12.43,12.43,0,0,1-1.83-3,16.52,16.52,0,0,1-1.07-3.37c.57,1,1,2.12,1.5,3.18Z" style="fill: rgb(242, 143, 143); transform-origin: 189.21px 237.335px;" id="el4xfuyxk3br7" class="animable"></path><path d="M200.16,240.09a32.3,32.3,0,0,1-3-5.34,12.84,12.84,0,0,0,3.64,7.26Z" style="fill: rgb(242, 143, 143); transform-origin: 198.98px 238.38px;" id="elvu1jryiu5a" class="animable"></path><path d="M207.85,109.25c-8.5,3-10.56,3-17.59,19.4-5.6,13.08-12.52,28-14.67,33.84-1.5,4.06-1.85,4.31-.3,12.81,1.62,8.85,6.53,32.92,6.53,32.92s7.07,2.6,16.9-2.24l-1.09-33.63s10.4-19.48,14.48-26.13C218.75,132.25,213.37,112.1,207.85,109.25Z" style="fill: rgb(240, 240, 240); transform-origin: 194.733px 159.084px;" id="elrwvtvfpt45f" class="animable"></path><path d="M180,201.55c3.7,1.75,15.16,1,18.84-2.35l.73,11.25c-3.47,3.25-13.06,5.54-17.79,2.24Z" style="fill: rgb(224, 224, 224); transform-origin: 189.785px 206.75px;" id="ela7dah8iskgh" class="animable"></path><path d="M258.91,132.32s-.42-8.64-1.06-15.38a110.2,110.2,0,0,0-3.22-15.78V98.65a23,23,0,0,0,4.63-.14L269.57,110l-9.3,7,2.43,5S261,130.78,258.91,132.32Z" style="fill: rgb(245, 245, 245); transform-origin: 262.1px 115.415px;" id="elc7jya02g2nf" class="animable"></path><path d="M230.29,95.53l-7.27,5.3-.71,12.63,22.79,6,1,6.51,12.8,6.37s-5-6.77-11.24-14.07L230.25,98Z" style="fill: rgb(245, 245, 245); transform-origin: 240.605px 113.935px;" id="elhptee4vjyg" class="animable"></path><g id="freepik--Head--inject-344" class="animable" style="transform-origin: 245.757px 86.405px;"><g id="freepik--head--inject-344" class="animable" style="transform-origin: 245.757px 86.405px;"><path d="M223.18,56.3a9.3,9.3,0,0,1,7-5.56c1.24-5.24,8.93-11.35,19.49-10s15.74,4.57,19.06,11,.51,10.88.51,10.88c-14.5,11.92-32.76,30.78-38.89,29.8.08-2.87-4.32-7.18-5.79-10.59-2.73-6.34-3.17-10.06-3.26-11.63C220.8,60.93,221.74,59.91,223.18,56.3Z" style="fill: rgb(55, 71, 79); transform-origin: 245.757px 66.5034px;" id="el8vmmtqjyvbv" class="animable"></path><path d="M228.29,85.77c3.21,2.42,5.5.2,5.5.2.45,3.82-1.63,6-3.43,6.39L230.25,98a47.69,47.69,0,0,0,7.27,10.26c6.84,6.86,17.45,19.58,21.39,24,0-11.67-1.06-18.56-4.28-31.23l.11-2.47a44.2,44.2,0,0,0,4.56-.23c4.36-.42,7.14-4.31,8.85-8.86,2.75-7.27,1.56-19,.76-31.24-5.46-4.68-24-2.45-30.86,4.12a34.74,34.74,0,0,1,.18,11.75c0,1.18-.53,2.25-1.23,2.31-2,.18-1.36-2.51-2.61-4s-6.27-2.4-8.59,2.1A9.35,9.35,0,0,0,228.29,85.77Z" style="fill: rgb(255, 168, 167); transform-origin: 247.374px 94.0011px;" id="el1bmq2zoe734" class="animable"></path></g><path d="M235.34,88.11c.89,3.19,6.9,8.87,19.4,10.51l-.11,2.47s-7.5-.9-12.73-3.94C236.27,93.88,235.34,91.56,235.34,88.11Z" style="fill: rgb(242, 143, 143); transform-origin: 245.04px 94.6px;" id="elu3eqfb8jsyq" class="animable"></path><path d="M238.23,71.49c.2,5.22.35,7.83,2.38,11.29,2.19,3.73,4.67,7,9,7.57,1.3.18,5.14-6.47,10.93-6.88s7.14,3.16,7.14,3.16a14.35,14.35,0,0,0,2.08-6c.89,5.62-.26,15.41-4.29,17.56s-8,2.34-14.09,1.13-13-5.11-14.66-9.95-.38-13.52-2.32-16.88Z" style="fill: rgb(55, 71, 79); transform-origin: 252.222px 85.7771px;" id="elgb4qyn16pf" class="animable"></path><path d="M261.61,85.77c-2.52.08-5.68,3.06-5.78,4.35s3.59-.34,5.56-.59,3.92-.4,3.83-1.49S264.23,85.69,261.61,85.77Z" style="fill: rgb(255, 168, 167); transform-origin: 260.525px 88.1888px;" id="el2c5pcwmyja5" class="animable"></path><path d="M263.4,87.38a2.76,2.76,0,0,0-1.33-.27,4.94,4.94,0,0,0-1.21.09,5.56,5.56,0,0,0-1.05.33,3.17,3.17,0,0,0-.56.4,5.58,5.58,0,0,0-.46.39c-.05.05,0,.23.06.19l.54-.19c.23-.07.47-.09.7-.16s.71-.21,1.08-.28.67-.1,1-.15a4.53,4.53,0,0,1,.74,0,1,1,0,0,0,.49-.06C263.5,87.6,263.47,87.42,263.4,87.38Z" style="fill: rgb(177, 102, 104); transform-origin: 261.117px 87.8099px;" id="el7ytlq7jzlcy" class="animable"></path><path d="M254.74,67.34c5-.77,11.26,10.93,11.26,10.93l-7.24,3.6Z" style="fill: rgb(242, 143, 143); transform-origin: 260.37px 74.5868px;" id="elrc1xsw3j79" class="animable"></path></g><path d="M226.17,46c-7.71,5.5-14.74,4.7-20.11,9.6-4.7,4.29-3.73,10.58,5.75,15.71,12.9,7,44,10.19,64.47-2.75C293,58,291.15,42.5,277,37.11S249.08,31.18,240,34.6,229,44,226.17,46Z" style="fill: rgb(69, 90, 100); transform-origin: 245.767px 54.9325px;" id="el09075r26v6gg" class="animable"></path><path d="M247.64,56.45c5.76-.29,19.31-.78,19.37-.54a6.26,6.26,0,0,1-.86,2.65,9.12,9.12,0,0,1-2,2.42,26,26,0,0,1-11.54,5,50.48,50.48,0,0,1-20.8-.72,21.41,21.41,0,0,1-7.62-3.8,3.67,3.67,0,0,1-1.26-1.59c-1.27-3.86,9.15-3.18,11-3.14C238.48,56.87,243.06,56.69,247.64,56.45Z" style="fill: rgb(55, 71, 79); transform-origin: 244.917px 61.2898px;" id="elunsno4f800e" class="animable"></path><path d="M275.65,69c-3.47,1.86-13.61,4.53-21.49,3.07-8.43-1.55-11.67-3.76-25.42-2.2s-20.21-1.29-24-4.35a19.45,19.45,0,0,0,7.05,5.85C224.58,78.26,255.21,81.47,275.65,69Z" style="fill: rgb(55, 71, 79); transform-origin: 240.195px 71.4842px;" id="el708twaik2ve" class="animable"></path><path d="M225.13,58.41s-.2-21.93,0-23.07,7.28-5.51,19-6.34,16.42,2.39,17.35,4.57S267,55.91,267,55.91s-2.06,8.73-21.24,8.73S225.13,58.41,225.13,58.41Z" style="fill: rgb(55, 71, 79); transform-origin: 246.021px 46.7532px;" id="el0ied9xwa329c" class="animable"></path><path d="M247.49,64.62a61.13,61.13,0,0,1-6.17-.9c-2.72-.65-5.44-2-6.92-4.35-2.79-4.44-1.21-11.33-.3-16.11a2.75,2.75,0,0,1,.59-1.46,2.89,2.89,0,0,1,1.94-.63,98.61,98.61,0,0,0,10.74-.87,20.11,20.11,0,0,0,9.78-4.21l-4.07-2.93c-2.88-1.2-5.58-2.81-8.37-4.19l-.56,0c-11.74.83-18.81,5.2-19,6.34s0,23.07,0,23.07,1.46,6.23,20.64,6.23C246.36,64.64,246.93,64.64,247.49,64.62Z" style="fill: rgb(38, 50, 56); transform-origin: 241.108px 46.802px;" id="el98cchhe6b0l" class="animable"></path><path d="M259.39,33.56c-1.41-1.81-7.56-3.58-14.65-3.18s-14,2.78-16.15,4.21,4.46,3.74,10.18,4.22,13-.08,16.64-1.43S260.5,35,259.39,33.56Z" style="fill: rgb(69, 90, 100); transform-origin: 243.965px 34.6511px;" id="elw5uddslwvv" class="animable"></path><path d="M267,55.91l-1.11-4.86c-2,3.09-9.62,8.29-19.87,8.53s-17.86-3-20.94-6.2h0c0,2.93,0,5,0,5s1.46,6.23,20.64,6.23S267,55.91,267,55.91Z" style="fill: #576E61; transform-origin: 246.04px 57.83px;" id="ellnbt0hakq6" class="animable"></path><g id="el1o26a8wpfk"><path d="M241.32,63.72c-2.72-.65-5.44-2-6.92-4.35a8.53,8.53,0,0,1-.68-1.35,20.74,20.74,0,0,1-8.63-4.64h0c0,.34,0,.66,0,1v.28c0,.17,0,.33,0,.49V56c0,.14,0,.29,0,.43,0,.44,0,.82,0,1.13v.9s1.46,6.23,20.64,6.23c.59,0,1.16,0,1.72,0A61.13,61.13,0,0,1,241.32,63.72Z" style="opacity: 0.2; transform-origin: 236.27px 59.035px;" class="animable" id="elzdreki3y1zq"></path></g></g><path d="M216,104.8c-4.76,3.65-1.77,9.06,16.71,6.08s33.64-8.62,38.42-12.37,1.52-3.87,1.52-3.87l-4.27-.27a16.16,16.16,0,0,0,.8-2.34s12.45-.15,17.06,2.57,4.61,6.23,4.61,6.23,4.34.83,5.7,3.55c.33.65,3.56,9.86,3.79,10.42.44,1,.29,3,0,6.21,3,14.3,8.09,38.25,5.27,43.31l-1-3.33c-3-2.92-11.32-8.21-22.93-15.18-14.94-9-27.8-15.39-27.8-15.39-7.66,1.9-12.86,3.83-35.29,9.85-19.18,5.14-28.56-1.36-31.4-4.49-2.39-2.64-.32-5.63,1.42-9.34,0,0-1.91-2.5,2.08-7.66s10.13-8.33,15.54-10.23S216,104.8,216,104.8Z" style="fill: #576E61; transform-origin: 246.271px 128.174px;" id="elcrxuv54ngjh" class="animable"></path><g id="eln6ubwl2rdqd"><path d="M287.66,101.91c-4.55,2.53-9,5.2-13.65,7.57s-9.14,4.42-13.85,6.32a172.47,172.47,0,0,1-29.33,8.89q-4.32.9-8.68,1.62c-2.88.47-5.77.79-8.66,1.23-.21,0-.12.44.07.43a117.18,117.18,0,0,0,15.38-2.08c5-1,10-2.16,14.92-3.58a172.31,172.31,0,0,0,28.77-11.16c2.59-1.28,5.14-2.64,7.65-4.06a82.48,82.48,0,0,0,7.61-4.72C288.09,102.23,287.88,101.78,287.66,101.91Z" style="opacity: 0.2; transform-origin: 250.67px 114.928px;" class="animable" id="elmtj6ym0qsu"></path></g><g id="elo03gqn7ldk"><path d="M188.58,126.44c-.28.6-.57,1.18-.84,1.74,3.46,4.9,10.87,6.1,15.36,4.39C195.9,132.88,189.93,129.32,188.58,126.44Z" style="opacity: 0.2; transform-origin: 195.42px 129.872px;" class="animable" id="eldgaei55spzd"></path></g><g id="el4xdsx6mxot9"><path d="M299.79,115.75a2,2,0,0,0-1.39-1.53c-3.56-1.54-23.07,10-44.55,16.2h0l.22.11,1.72.88h0c.81.42,1.85,1,3.09,1.61l.14,0c1.44.65,2.92,1.21,4.41,1.76,2.29.84,4.62,1.61,6.95,2.35,4.76,1.51,9.57,2.89,14.26,4.61,2.53.94,5,1.92,7.48,3.09.06,0,.08-.11,0-.14-8.63-4.76-18.28-6.91-27.49-10.2-2.31-.83-4.55-1.78-6.81-2.72,1.2.2,2.4.37,3.61.51,2.49.29,5,.47,7.51.64,5.11.33,10.23.59,15.29,1.41a79.07,79.07,0,0,1,8.45,2s.05-.09,0-.1c-4.6-2.16-9.84-2.88-14.84-3.4-5.26-.53-10.54-.71-15.8-1.28-1.41-.16-2.82-.34-4.22-.57l-.68-.11c17.81-6.54,23.78-9.53,34.29-13.81,5.37-2.19,6.34.12,7.61,1.54a5.24,5.24,0,0,1,1.22,2.38S300.14,117.77,299.79,115.75Z" style="opacity: 0.2; transform-origin: 277.055px 129.455px;" class="animable" id="el8wc9eiaxouq"></path></g><path d="M270.89,106a8.28,8.28,0,0,0-1.24-1.75,7.14,7.14,0,0,0-.83-.82,1.25,1.25,0,0,0-.69-.36.41.41,0,0,0-.23.77s.08.12.09.13l.1.09.19.18.35.37a9.77,9.77,0,0,1,.63.81c.39.55.69,1.16,1,1.74.14.25.39.56.69.58s.34-.48.3-.72A4.21,4.21,0,0,0,270.89,106Zm7.1-2c.37,0,.34-.49.3-.72a4.06,4.06,0,0,0-.39-1,8,8,0,0,0-1.24-1.75,8.13,8.13,0,0,0-.83-.83,1.3,1.3,0,0,0-.69-.35.4.4,0,0,0-.23.76l.09.14.1.09.19.18c.12.12.24.24.35.37a9.77,9.77,0,0,1,.63.81c.39.55.69,1.15,1,1.74C277.44,103.61,277.69,103.93,278,104Zm.18,7.54a9.2,9.2,0,0,0-.66-1,1.39,1.39,0,0,0-.62-.48.41.41,0,0,0-.37.71l.07.15a.76.76,0,0,0,.08.11l.15.21c.09.14.19.28.27.43a7.83,7.83,0,0,1,.47.91c.28.61.46,1.27.68,1.91.1.26.28.62.58.7s.42-.42.42-.66a4,4,0,0,0-.19-1.07A8,8,0,0,0,278.17,111.49Zm-38.53,12.35c-.08-.12-.17-.23-.26-.34a1.06,1.06,0,0,1-.19-.23,1,1,0,0,1,0-.3c0-.1,0-.19,0-.29a4.13,4.13,0,0,0-.24-1.35,3.58,3.58,0,0,0-.76-1.31c-.15-.15-.19.13-.16.22s.19.41.25.62a4.54,4.54,0,0,1,.12.53,4.18,4.18,0,0,1,0,1.32,1.3,1.3,0,0,0,0,.65,3,3,0,0,0,.4.6,4.68,4.68,0,0,1,.3.54,2.26,2.26,0,0,0,.22.44,1.48,1.48,0,0,1,.16.27c.08.16.43.38.45.05a2,2,0,0,0,0-.49,1.7,1.7,0,0,0-.13-.4A3.35,3.35,0,0,0,239.64,123.84Zm4.4-.93c-.3-.33-.92-.6-1-1s-.09-1-.18-1.45a10.39,10.39,0,0,0-.92-2.72c-.32-.63-.64-1.16-1.42-1.13a30.54,30.54,0,0,0-7.27,1.33l-.06,0c-.11-.06-.23,0-.17.19a15.84,15.84,0,0,1,1,3.07,13,13,0,0,1,.17,1.38,3.74,3.74,0,0,0,.11,1.25,3.18,3.18,0,0,0,.7.85,6.28,6.28,0,0,1,.83,1.09,7.4,7.4,0,0,1,1,2.72.47.47,0,0,0,.41.38,4.89,4.89,0,0,0,2.29-.83,9.87,9.87,0,0,1,2.83-1.06,9.69,9.69,0,0,1,1.52-.17,1.93,1.93,0,0,0,.86-.15c.59-.33.49-1.23.38-1.79A4,4,0,0,0,244,122.91Zm.17,3.12c-.32.22-1.05.11-1.43.15a9.51,9.51,0,0,0-2.81.75,12.27,12.27,0,0,1-2.6,1.21,8,8,0,0,0-.84-2.26,7,7,0,0,0-.66-1c-.28-.35-.68-.64-.94-1s-.24-1.26-.32-1.79a11.13,11.13,0,0,0-.25-1.28,11.47,11.47,0,0,0-.81-2.21h0a37.13,37.13,0,0,1,6.76-1.35c.34,0,.55-.06.78.24a4.77,4.77,0,0,1,.41.85,8.87,8.87,0,0,1,.53,1.68,11.74,11.74,0,0,1,.21,1.43,1.55,1.55,0,0,0,.36,1c.3.35.73.54,1,.9a3.13,3.13,0,0,1,.61,1.17C244.4,124.93,244.59,125.77,244.21,126Zm-42.53-10.62a8.45,8.45,0,0,0-2.71,2,11.36,11.36,0,0,0-1.11,1.38,4.21,4.21,0,0,0-.36.74,1.89,1.89,0,0,0-.21.87c0,.08.1.26.21.2A1.62,1.62,0,0,0,198,120c.17-.22.36-.42.53-.64.29-.4.58-.8.91-1.18a21.31,21.31,0,0,1,2.5-2.34C202.16,115.7,201.89,115.32,201.68,115.41Zm5.91,3a3.3,3.3,0,0,0-1.27.89,12.45,12.45,0,0,0-1,1.08,13.31,13.31,0,0,0-.79,1.17,2.42,2.42,0,0,0-.49,1.49c0,.09.12.27.24.21a1.5,1.5,0,0,0,.5-.56l.44-.68a13.21,13.21,0,0,1,.81-1.15c.27-.35.56-.69.86-1a3.94,3.94,0,0,0,.89-1.07C207.87,118.62,207.77,118.34,207.59,118.39Zm-8.91,6.14a2.85,2.85,0,0,0-1.49,1.73,5.23,5.23,0,0,0-.31,1.16c0,.22,0,.44-.07.67a3.29,3.29,0,0,0,0,.89c0,.11.18.23.26.11a2.44,2.44,0,0,0,.21-.59c.07-.19.11-.39.16-.58.11-.4.24-.8.38-1.19a3.3,3.3,0,0,1,.45-.9,3.08,3.08,0,0,1,.3-.41A4.72,4.72,0,0,0,199,125C199.07,124.85,198.91,124.46,198.68,124.53ZM290.84,126l-.45-1.62a4.6,4.6,0,0,0-.22-.72c-.07-.15-.23-.46-.45-.39l-.07,0a.22.22,0,0,0-.13.25,8.67,8.67,0,0,0,.31,1.41c.11.46.22.92.35,1.38a17.84,17.84,0,0,0,1.05,2.92c0,.11.16.05.16,0a10.65,10.65,0,0,0-.19-1.49A16.21,16.21,0,0,0,290.84,126Zm-5.35,13.47a3.26,3.26,0,0,0-.14-.6q-.12-.42-.27-.84a4.79,4.79,0,0,0-.75-1.58c-.08-.09-.3-.18-.32,0a2.78,2.78,0,0,0,.27,1.09c.11.29.2.58.29.88l.27.88a2,2,0,0,0,.29.59.75.75,0,0,0,.1.17c0,.06.13.1.18,0a.44.44,0,0,0,0-.28l0,.1A.61.61,0,0,0,285.49,139.45Zm14.81-2.93a4,4,0,0,0-.14-.6c-.09-.28-.17-.56-.27-.84a4.54,4.54,0,0,0-.76-1.58c-.08-.1-.3-.18-.31,0a2.73,2.73,0,0,0,.27,1.08c.1.3.2.59.29.89s.17.58.26.88a3.29,3.29,0,0,0,.17.39l.12.19a1,1,0,0,0,.1.18c0,.05.13.1.18,0a.55.55,0,0,0,.06-.28l0,.1A.61.61,0,0,0,300.3,136.52Zm24.68,107a26.3,26.3,0,0,0-2.18-3.69,15.75,15.75,0,0,0-2.9-3.35c.05-1.41.08-2.82.1-4.22,0-2.87,0-5.74-.06-8.61,2,1.74,3.13,4.16,4.28,6.52.44.91.85,1.84,1.25,2.77,0-.58-.05-1.16-.09-1.75-.25-.56-.51-1.11-.78-1.66a38.49,38.49,0,0,0-2.17-3.86,11.57,11.57,0,0,0-1.05-1.37c-.19-.2-.4-.38-.58-.59l-.32-.36s-.28-.24-.28-.31a1,1,0,0,1-.3-.69c0-.32,0-.64,0-1-.06-1.89-.15-3.78-.26-5.67,0-.51-.06-1-.1-1.54,0-.26,0-.52-.05-.78s-.07-.4.1-.44.16,0,.22.07a2.46,2.46,0,0,1,.44.34c.44.42.88.85,1.3,1.3a27.79,27.79,0,0,1,2.45,3c.1.15.19.3.3.45l-.18-1.43a21.14,21.14,0,0,0-1.74-2c-.51-.52-1-1-1.59-1.51-.35-.3-.68-.63-1-1a2.5,2.5,0,0,1-.31-.34,1.91,1.91,0,0,1-.15-1c0-.37-.07-.73-.1-1.1-.09-1.13-.19-2.26-.3-3.38q-.28-3.21-.65-6.39a.23.23,0,0,0,.06.12c.95,1,1.95,1.84,2.85,2.85.25.29.49.59.74.9-.1-.45-.2-.9-.31-1.35l-.25-.3c-1-1-2.28-1.89-3-3.17a4.63,4.63,0,0,1-.45-1.78c-.18-1.47-.37-2.94-.56-4.4-.41-3.1-.86-6.2-1.33-9.29-.47-1.6-.95-3.27-1.43-5,.08.57.17,1.13.25,1.7.82,5.5,1.59,11,2.24,16.55a277.1,277.1,0,0,1,2.09,33q0,4.6-.23,9.19c-.09,1.86-.26,3.72-.39,5.58q.38.94.72,1.89c.24-2,.33-3.93.44-5.88.07-1.16.12-2.32.16-3.48.37.48.78.93,1.15,1.4s.84,1.08,1.23,1.65a27.27,27.27,0,0,1,2.14,3.75c.49,1.06.91,2.15,1.3,3.24,0-.62,0-1.26,0-1.91C325.48,244.63,325.24,244.05,325,243.49Z" style="fill: rgb(224, 224, 224); transform-origin: 261.24px 173.232px;" id="elxq2cihohgte" class="animable"></path></g></g><defs>     <filter id="active" height="200%">         <feMorphology in="SourceAlpha" result="DILATED" operator="dilate" radius="2"></feMorphology>                <feFlood flood-color="#32DFEC" flood-opacity="1" result="PINK"></feFlood>        <feComposite in="PINK" in2="DILATED" operator="in" result="OUTLINE"></feComposite>        <feMerge>            <feMergeNode in="OUTLINE"></feMergeNode>            <feMergeNode in="SourceGraphic"></feMergeNode>        </feMerge>    </filter>    <filter id="hover" height="200%">        <feMorphology in="SourceAlpha" result="DILATED" operator="dilate" radius="2"></feMorphology>                <feFlood flood-color="#ff0000" flood-opacity="0.5" result="PINK"></feFlood>        <feComposite in="PINK" in2="DILATED" operator="in" result="OUTLINE"></feComposite>        <feMerge>            <feMergeNode in="OUTLINE"></feMergeNode>            <feMergeNode in="SourceGraphic"></feMergeNode>        </feMerge>            <feColorMatrix type="matrix" values="0   0   0   0   0                0   1   0   0   0                0   0   0   0   0                0   0   0   1   0 "></feColorMatrix>    </filter></defs></svg>