<svg width="25" height="25" viewBox="0 0 25 25" fill="none" xmlns="http://www.w3.org/2000/svg">
<path d="M16.8567 2.84766H8.47675C4.83675 2.84766 2.66675 5.01766 2.66675 8.65766V17.0277C2.66675 20.6777 4.83675 22.8477 8.47675 22.8477H16.8467C20.4867 22.8477 22.6567 20.6777 22.6567 17.0377V8.65766C22.6667 5.01766 20.4967 2.84766 16.8567 2.84766ZM17.4467 10.5477L11.7767 16.2177C11.6367 16.3577 11.4467 16.4377 11.2467 16.4377C11.0467 16.4377 10.8567 16.3577 10.7167 16.2177L7.88675 13.3877C7.59675 13.0977 7.59675 12.6177 7.88675 12.3277C8.17675 12.0377 8.65675 12.0377 8.94675 12.3277L11.2467 14.6277L16.3867 9.48766C16.6767 9.19766 17.1567 9.19766 17.4467 9.48766C17.7367 9.77766 17.7367 10.2477 17.4467 10.5477Z" fill="currentColor"/>
</svg>
